<svg width="347" height="398" viewBox="0 0 347 398" fill="none" xmlns="http://www.w3.org/2000/svg">
<g clip-path="url(#clip0_969_133603)">
<path d="M0.5 20.9265C0.5 9.3691 9.86912 0 21.4265 0H325.733C337.29 0 346.66 9.36912 346.66 20.9265V376.928C346.66 388.485 337.29 397.854 325.733 397.854H21.43C9.87069 397.854 0.5 388.483 0.5 376.924V20.9265Z" fill="white"/>
<rect width="346.16" height="73.5343" transform="translate(0.5)" fill="white"/>
<rect width="346.16" height="56.0955" transform="translate(0.5)" fill="white"/>
<path d="M22.3891 35.9268V26.161H28.8066V27.6817H24.2725V30.2347H28.3881V31.6996H24.2725V34.4061H28.8066V35.9268H22.3891ZM33.8849 36.0942C33.178 36.0942 32.5456 35.9733 31.9875 35.7314C31.4388 35.4896 31.0017 35.1362 30.6761 34.6712C30.3599 34.2061 30.1972 33.6434 30.1879 32.9831H32.1829C32.1922 33.2714 32.2666 33.5318 32.4061 33.7644C32.5456 33.9969 32.7362 34.1829 32.9781 34.3224C33.2292 34.4526 33.5268 34.5177 33.8709 34.5177C34.1685 34.5177 34.4243 34.4712 34.6382 34.3782C34.8614 34.2759 35.0335 34.1364 35.1544 33.9597C35.2753 33.783 35.3358 33.5737 35.3358 33.3319C35.3358 33.0528 35.266 32.8203 35.1265 32.6343C34.9963 32.4483 34.8103 32.2902 34.5685 32.16C34.336 32.0298 34.0616 31.9135 33.7454 31.8112C33.4384 31.6996 33.1129 31.5833 32.7688 31.4624C31.9968 31.2113 31.4062 30.8765 30.997 30.458C30.5971 30.0394 30.3971 29.486 30.3971 28.7978C30.3971 28.2118 30.5366 27.7096 30.8157 27.2911C31.104 26.8726 31.4993 26.5517 32.0015 26.3285C32.5037 26.1052 33.0757 25.9936 33.7175 25.9936C34.3778 25.9936 34.9545 26.1099 35.4474 26.3424C35.9496 26.5656 36.3449 26.8912 36.6332 27.319C36.9308 27.7468 37.0843 28.2491 37.0936 28.8257H35.0847C35.0754 28.6118 35.0103 28.4118 34.8893 28.2258C34.7777 28.0305 34.6196 27.877 34.415 27.7654C34.2104 27.6445 33.9686 27.5841 33.6896 27.5841C33.4477 27.5748 33.2245 27.612 33.0199 27.6957C32.8246 27.7794 32.6665 27.9049 32.5456 28.0723C32.434 28.2304 32.3782 28.4304 32.3782 28.6722C32.3782 28.9047 32.434 29.1001 32.5456 29.2582C32.6665 29.4163 32.8292 29.5558 33.0339 29.6767C33.2385 29.7883 33.4803 29.8953 33.7593 29.9976C34.0383 30.0906 34.3406 30.1882 34.6661 30.2905C35.1498 30.458 35.5962 30.6579 36.0054 30.8904C36.4147 31.1137 36.7402 31.4066 36.982 31.7694C37.2238 32.1321 37.3447 32.6111 37.3447 33.2063C37.3447 33.7178 37.2099 34.1922 36.9401 34.6293C36.6704 35.0664 36.2798 35.4199 35.7683 35.6896C35.266 35.9593 34.6382 36.0942 33.8849 36.0942ZM41.121 35.9268V27.6817H38.261V26.161H45.8364V27.6817H42.9904V35.9268H41.121ZM46.588 32.6064V31.03H52.4754V32.6064H46.588ZM54.2495 35.9268V34.5456C54.8448 34.0713 55.4214 33.5969 55.9795 33.1226C56.5468 32.6483 57.0537 32.1786 57.5001 31.7136C57.9466 31.2392 58.3 30.7788 58.5604 30.3324C58.8208 29.886 58.951 29.4535 58.951 29.035C58.951 28.7745 58.9045 28.5374 58.8115 28.3235C58.7185 28.1002 58.5697 27.9235 58.3651 27.7933C58.1698 27.6538 57.9094 27.5841 57.5838 27.5841C57.2583 27.5841 56.9839 27.6585 56.7607 27.8073C56.5375 27.9561 56.3701 28.156 56.2585 28.4072C56.1469 28.649 56.0911 28.9233 56.0911 29.2303H54.2635C54.2914 28.5141 54.4542 27.9142 54.7518 27.4306C55.0494 26.947 55.4493 26.5889 55.9516 26.3564C56.4538 26.1145 57.0165 25.9936 57.6396 25.9936C58.3279 25.9936 58.9092 26.1238 59.3835 26.3843C59.8578 26.6354 60.2159 26.9795 60.4577 27.4166C60.7089 27.8538 60.8344 28.356 60.8344 28.9233C60.8344 29.3512 60.7554 29.7697 60.5972 30.1789C60.4484 30.5882 60.2345 30.9881 59.9555 31.3787C59.6858 31.7601 59.3789 32.1274 59.0347 32.4809C58.6906 32.8343 58.3325 33.1738 57.9605 33.4993C57.5885 33.8155 57.2258 34.1131 56.8723 34.3921H61.0716V35.9268H54.2495ZM66.0542 36.0942C65.3473 36.0942 64.7335 35.9686 64.2126 35.7175C63.7011 35.4664 63.3012 35.1222 63.0128 34.6851C62.7245 34.248 62.5571 33.7504 62.5106 33.1924H64.3521C64.4172 33.5551 64.6033 33.862 64.9102 34.1131C65.2171 34.3642 65.6031 34.4898 66.0681 34.4898C66.4029 34.4898 66.6959 34.4061 66.947 34.2387C67.1981 34.0713 67.3935 33.8481 67.533 33.569C67.6725 33.2807 67.7422 32.9552 67.7422 32.5925C67.7422 32.2204 67.6678 31.8996 67.519 31.6298C67.3795 31.3601 67.1842 31.1509 66.9331 31.0021C66.6913 30.8532 66.4122 30.7788 66.096 30.7788C65.6961 30.7788 65.352 30.8765 65.0636 31.0718C64.7846 31.2578 64.5847 31.4857 64.4637 31.7554H62.6362L63.4453 26.161H68.9281V27.8073H64.8404L64.4358 29.9836C64.6405 29.7697 64.9148 29.5976 65.259 29.4674C65.6031 29.3279 65.9891 29.2582 66.4169 29.2582C66.947 29.2582 67.4074 29.3512 67.798 29.5372C68.1887 29.7139 68.5142 29.9604 68.7746 30.2766C69.035 30.5835 69.2303 30.9369 69.3606 31.3369C69.4908 31.7275 69.5559 32.1414 69.5559 32.5785C69.5559 33.0901 69.4675 33.5597 69.2908 33.9876C69.1234 34.4154 68.8816 34.7874 68.5653 35.1036C68.2584 35.4199 67.891 35.6663 67.4632 35.8431C67.0447 36.0105 66.575 36.0942 66.0542 36.0942ZM75.1931 36.0942C74.3095 36.0942 73.5468 35.8803 72.9051 35.4524C72.2633 35.0246 71.7704 34.434 71.4263 33.6806C71.0915 32.918 70.924 32.0391 70.924 31.0439C70.924 30.0487 71.0915 29.1745 71.4263 28.4211C71.7704 27.6585 72.2587 27.0632 72.8911 26.6354C73.5329 26.2076 74.3002 25.9936 75.1931 25.9936C76.0859 25.9936 76.8486 26.2076 77.481 26.6354C78.1228 27.0632 78.6111 27.6585 78.9459 28.4211C79.29 29.1745 79.4621 30.0487 79.4621 31.0439C79.4621 32.0391 79.29 32.918 78.9459 33.6806C78.6111 34.434 78.1228 35.0246 77.481 35.4524C76.8486 35.8803 76.0859 36.0942 75.1931 36.0942ZM75.1931 34.4061C75.6581 34.4061 76.0673 34.2712 76.4207 34.0015C76.7742 33.7225 77.0485 33.3319 77.2439 32.8296C77.4485 32.3274 77.5508 31.7322 77.5508 31.0439C77.5508 30.3464 77.4485 29.7511 77.2439 29.2582C77.0485 28.7559 76.7742 28.37 76.4207 28.1002C76.0673 27.8305 75.6581 27.6957 75.1931 27.6957C74.728 27.6957 74.3188 27.8305 73.9654 28.1002C73.6119 28.37 73.3329 28.7559 73.1283 29.2582C72.933 29.7511 72.8353 30.3464 72.8353 31.0439C72.8353 31.7322 72.933 32.3274 73.1283 32.8296C73.3329 33.3319 73.6119 33.7225 73.9654 34.0015C74.3188 34.2712 74.728 34.4061 75.1931 34.4061ZM80.7483 35.9268V34.5456C81.3435 34.0713 81.9202 33.5969 82.4782 33.1226C83.0456 32.6483 83.5524 32.1786 83.9989 31.7136C84.4453 31.2392 84.7987 30.7788 85.0591 30.3324C85.3196 29.886 85.4498 29.4535 85.4498 29.035C85.4498 28.7745 85.4033 28.5374 85.3103 28.3235C85.2173 28.1002 85.0684 27.9235 84.8638 27.7933C84.6685 27.6538 84.4081 27.5841 84.0826 27.5841C83.7571 27.5841 83.4827 27.6585 83.2595 27.8073C83.0363 27.9561 82.8688 28.156 82.7572 28.4072C82.6456 28.649 82.5898 28.9233 82.5898 29.2303H80.7622C80.7901 28.5141 80.9529 27.9142 81.2505 27.4306C81.5481 26.947 81.9481 26.5889 82.4503 26.3564C82.9525 26.1145 83.5152 25.9936 84.1384 25.9936C84.8266 25.9936 85.4079 26.1238 85.8823 26.3843C86.3566 26.6354 86.7147 26.9795 86.9565 27.4166C87.2076 27.8538 87.3332 28.356 87.3332 28.9233C87.3332 29.3512 87.2541 29.7697 87.096 30.1789C86.9472 30.5882 86.7333 30.9881 86.4543 31.3787C86.1845 31.7601 85.8776 32.1274 85.5335 32.4809C85.1894 32.8343 84.8313 33.1738 84.4593 33.4993C84.0872 33.8155 83.7245 34.1131 83.3711 34.3921H87.5703V35.9268H80.7483ZM89.1768 32.6064V31.03H95.0641V32.6064H89.1768ZM101.051 36.0942C100.168 36.0942 99.4053 35.8803 98.7635 35.4524C98.1218 35.0246 97.6288 34.434 97.2847 33.6806C96.9499 32.918 96.7825 32.0391 96.7825 31.0439C96.7825 30.0487 96.9499 29.1745 97.2847 28.4211C97.6288 27.6585 98.1171 27.0632 98.7496 26.6354C99.3913 26.2076 100.159 25.9936 101.051 25.9936C101.944 25.9936 102.707 26.2076 103.339 26.6354C103.981 27.0632 104.469 27.6585 104.804 28.4211C105.148 29.1745 105.32 30.0487 105.32 31.0439C105.32 32.0391 105.148 32.918 104.804 33.6806C104.469 34.434 103.981 35.0246 103.339 35.4524C102.707 35.8803 101.944 36.0942 101.051 36.0942ZM101.051 34.4061C101.517 34.4061 101.926 34.2712 102.279 34.0015C102.633 33.7225 102.907 33.3319 103.102 32.8296C103.307 32.3274 103.409 31.7322 103.409 31.0439C103.409 30.3464 103.307 29.7511 103.102 29.2582C102.907 28.7559 102.633 28.37 102.279 28.1002C101.926 27.8305 101.517 27.6957 101.051 27.6957C100.586 27.6957 100.177 27.8305 99.8238 28.1002C99.4704 28.37 99.1913 28.7559 98.9867 29.2582C98.7914 29.7511 98.6938 30.3464 98.6938 31.0439C98.6938 31.7322 98.7914 32.3274 98.9867 32.8296C99.1913 33.3319 99.4704 33.7225 99.8238 34.0015C100.177 34.2712 100.586 34.4061 101.051 34.4061ZM110.874 36.0942C109.991 36.0942 109.228 35.8803 108.586 35.4524C107.945 35.0246 107.452 34.434 107.108 33.6806C106.773 32.918 106.605 32.0391 106.605 31.0439C106.605 30.0487 106.773 29.1745 107.108 28.4211C107.452 27.6585 107.94 27.0632 108.572 26.6354C109.214 26.2076 109.982 25.9936 110.874 25.9936C111.767 25.9936 112.53 26.2076 113.162 26.6354C113.804 27.0632 114.292 27.6585 114.627 28.4211C114.971 29.1745 115.143 30.0487 115.143 31.0439C115.143 32.0391 114.971 32.918 114.627 33.6806C114.292 34.434 113.804 35.0246 113.162 35.4524C112.53 35.8803 111.767 36.0942 110.874 36.0942ZM110.874 34.4061C111.339 34.4061 111.749 34.2712 112.102 34.0015C112.456 33.7225 112.73 33.3319 112.925 32.8296C113.13 32.3274 113.232 31.7322 113.232 31.0439C113.232 30.3464 113.13 29.7511 112.925 29.2582C112.73 28.7559 112.456 28.37 112.102 28.1002C111.749 27.8305 111.339 27.6957 110.874 27.6957C110.409 27.6957 110 27.8305 109.647 28.1002C109.293 28.37 109.014 28.7559 108.81 29.2582C108.614 29.7511 108.517 30.3464 108.517 31.0439C108.517 31.7322 108.614 32.3274 108.81 32.8296C109.014 33.3319 109.293 33.7225 109.647 34.0015C110 34.2712 110.409 34.4061 110.874 34.4061ZM117.949 35.9268V28.3235L116.219 28.7838V27.2771L118.758 26.161H119.902V35.9268H117.949Z" fill="#181D27"/>
<rect x="21.4265" y="45.4141" width="275.533" height="10.6812" rx="5.34062" fill="#E6E6E6"/>
<path d="M25.2107 86.6807C24.5922 86.6807 24.0388 86.5749 23.5506 86.3633C23.0704 86.1517 22.6879 85.8424 22.4031 85.4355C22.1264 85.0286 21.984 84.5363 21.9758 83.9585H23.7215C23.7296 84.2108 23.7947 84.4386 23.9168 84.6421C24.0388 84.8455 24.2057 85.0083 24.4173 85.1304C24.637 85.2443 24.8974 85.3013 25.1985 85.3013C25.4589 85.3013 25.6827 85.2606 25.8699 85.1792C26.0652 85.0897 26.2158 84.9676 26.3216 84.813C26.4274 84.6583 26.4803 84.4752 26.4803 84.2637C26.4803 84.0195 26.4192 83.8161 26.2972 83.6533C26.1832 83.4905 26.0205 83.3522 25.8089 83.2383C25.6054 83.1243 25.3653 83.0226 25.0887 82.9331C24.8201 82.8354 24.5353 82.7337 24.2342 82.6279C23.5587 82.4082 23.0419 82.1152 22.6838 81.749C22.3339 81.3828 22.1589 80.8986 22.1589 80.2963C22.1589 79.7836 22.281 79.3442 22.5252 78.978C22.7774 78.6117 23.1233 78.331 23.5628 78.1357C24.0022 77.9404 24.5027 77.8427 25.0642 77.8427C25.642 77.8427 26.1466 77.9444 26.5779 78.1479C27.0174 78.3432 27.3633 78.628 27.6155 79.0024C27.876 79.3767 28.0102 79.8162 28.0184 80.3207H26.2605C26.2524 80.1336 26.1954 79.9586 26.0896 79.7958C25.992 79.6249 25.8536 79.4907 25.6746 79.393C25.4956 79.2872 25.284 79.2343 25.0398 79.2343C24.8282 79.2262 24.6329 79.2587 24.4539 79.332C24.283 79.4052 24.1446 79.5151 24.0388 79.6616C23.9412 79.7999 23.8924 79.9749 23.8924 80.1865C23.8924 80.3899 23.9412 80.5608 24.0388 80.6992C24.1446 80.8375 24.2871 80.9596 24.4661 81.0654C24.6451 81.163 24.8567 81.2566 25.1009 81.3461C25.345 81.4275 25.6095 81.513 25.8943 81.6025C26.3175 81.749 26.7081 81.924 27.0662 82.1274C27.4243 82.3227 27.7091 82.5791 27.9207 82.8965C28.1323 83.2138 28.2381 83.633 28.2381 84.1538C28.2381 84.6014 28.1201 85.0164 27.8841 85.3989C27.6481 85.7814 27.3063 86.0907 26.8587 86.3267C26.4192 86.5627 25.8699 86.6807 25.2107 86.6807ZM32.5779 86.6807C31.9594 86.6807 31.4101 86.5423 30.93 86.2656C30.4498 85.9889 30.0755 85.6105 29.8069 85.1304C29.5383 84.6502 29.4041 84.1009 29.4041 83.4824C29.4041 82.8476 29.5383 82.2902 29.8069 81.81C30.0755 81.3217 30.4498 80.9392 30.93 80.6625C31.4101 80.3777 31.9594 80.2353 32.5779 80.2353C33.3673 80.2353 34.0306 80.4428 34.5677 80.8579C35.1048 81.2729 35.4466 81.8426 35.5931 82.5669H33.8475C33.7742 82.282 33.6196 82.0582 33.3836 81.8955C33.1557 81.7327 32.8831 81.6513 32.5657 81.6513C32.2809 81.6513 32.0245 81.7246 31.7967 81.8711C31.5769 82.0094 31.402 82.2169 31.2718 82.4936C31.1497 82.7622 31.0887 83.0836 31.0887 83.458C31.0887 83.7428 31.1253 83.9992 31.1985 84.227C31.2718 84.4468 31.3735 84.638 31.5037 84.8008C31.6339 84.9554 31.7885 85.0734 31.9676 85.1548C32.1547 85.2362 32.3541 85.2768 32.5657 85.2768C32.7773 85.2768 32.9686 85.2402 33.1395 85.167C33.3185 85.0937 33.469 84.992 33.5911 84.8618C33.7132 84.7235 33.7986 84.5566 33.8475 84.3613H35.5931C35.4466 85.0693 35.1007 85.6349 34.5555 86.0581C34.0184 86.4731 33.3592 86.6807 32.5779 86.6807ZM39.9196 86.6807C39.3336 86.6807 38.8046 86.5464 38.3326 86.2778C37.8688 86.0011 37.4985 85.6227 37.2218 85.1426C36.9532 84.6543 36.8189 84.0968 36.8189 83.4702C36.8189 82.8273 36.9532 82.2658 37.2218 81.7856C37.4985 81.2973 37.8728 80.9189 38.3448 80.6503C38.8168 80.3736 39.3458 80.2353 39.9318 80.2353C40.5258 80.2353 41.0548 80.3736 41.5187 80.6503C41.9907 80.9189 42.361 81.2973 42.6295 81.7856C42.9062 82.2658 43.0446 82.8232 43.0446 83.458C43.0446 84.0928 42.9062 84.6543 42.6295 85.1426C42.361 85.6227 41.9907 86.0011 41.5187 86.2778C41.0467 86.5464 40.5136 86.6807 39.9196 86.6807ZM39.9196 85.2524C40.1963 85.2524 40.4404 85.1873 40.652 85.0571C40.8717 84.9269 41.0426 84.7275 41.1647 84.459C41.2949 84.1904 41.36 83.8567 41.36 83.458C41.36 83.0592 41.2949 82.7296 41.1647 82.4692C41.0426 82.2006 40.8717 82.0013 40.652 81.8711C40.4404 81.7327 40.2003 81.6635 39.9318 81.6635C39.6713 81.6635 39.4313 81.7327 39.2115 81.8711C38.9918 82.0013 38.8168 82.2006 38.6866 82.4692C38.5646 82.7296 38.5035 83.0592 38.5035 83.458C38.5035 83.8567 38.5646 84.1904 38.6866 84.459C38.8168 84.7275 38.9877 84.9269 39.1993 85.0571C39.4191 85.1873 39.6591 85.2524 39.9196 85.2524ZM44.4649 89.2197V80.3818H45.9298L46.1129 81.2363C46.2431 81.0572 46.3977 80.8945 46.5767 80.748C46.7558 80.5934 46.9674 80.4713 47.2115 80.3818C47.4638 80.2841 47.7568 80.2353 48.0904 80.2353C48.6682 80.2353 49.1769 80.3777 49.6163 80.6625C50.0558 80.9474 50.4016 81.3339 50.6539 81.8222C50.9143 82.3024 51.0446 82.8517 51.0446 83.4702C51.0446 84.0887 50.9143 84.6421 50.6539 85.1304C50.3935 85.6105 50.0436 85.9889 49.6041 86.2656C49.1647 86.5423 48.6642 86.6807 48.1026 86.6807C47.6469 86.6807 47.2522 86.5993 46.9185 86.4365C46.593 86.2656 46.3245 86.0337 46.1129 85.7407V89.2197H44.4649ZM47.712 85.2402C48.0375 85.2402 48.3224 85.167 48.5665 85.0205C48.8188 84.874 49.0141 84.6665 49.1524 84.3979C49.2908 84.1294 49.36 83.8201 49.36 83.4702C49.36 83.1203 49.2908 82.811 49.1524 82.5424C49.0141 82.2658 48.8188 82.0542 48.5665 81.9077C48.3224 81.7531 48.0375 81.6757 47.712 81.6757C47.3946 81.6757 47.1098 81.7531 46.8575 81.9077C46.6134 82.0542 46.418 82.2617 46.2716 82.5302C46.1332 82.7988 46.064 83.108 46.064 83.458C46.064 83.8079 46.1332 84.1212 46.2716 84.3979C46.418 84.6665 46.6134 84.874 46.8575 85.0205C47.1098 85.167 47.3946 85.2402 47.712 85.2402ZM55.418 86.6807C54.7995 86.6807 54.2502 86.5505 53.7701 86.29C53.2981 86.0215 52.9278 85.6512 52.6592 85.1792C52.3988 84.699 52.2686 84.1457 52.2686 83.519C52.2686 82.8761 52.3988 82.3105 52.6592 81.8222C52.9278 81.3258 53.2981 80.9392 53.7701 80.6625C54.2421 80.3777 54.7914 80.2353 55.418 80.2353C56.0284 80.2353 56.5614 80.3696 57.0172 80.6381C57.4729 80.9067 57.8269 81.2688 58.0792 81.7246C58.3315 82.1803 58.4576 82.6971 58.4576 83.2749C58.4576 83.3563 58.4576 83.4498 58.4576 83.5556C58.4576 83.6533 58.4495 83.755 58.4332 83.8608H53.4405V82.8598H56.7975C56.773 82.4611 56.6306 82.1477 56.3702 81.9199C56.1179 81.692 55.8005 81.5781 55.418 81.5781C55.1413 81.5781 54.885 81.6432 54.649 81.7734C54.413 81.8955 54.2258 82.0867 54.0875 82.3471C53.9573 82.6076 53.8922 82.9371 53.8922 83.3359V83.6899C53.8922 84.0236 53.9532 84.3166 54.0753 84.5688C54.2055 84.813 54.3845 85.0042 54.6124 85.1426C54.8402 85.2728 55.1047 85.3379 55.4058 85.3379C55.7069 85.3379 55.9552 85.2728 56.1505 85.1426C56.3539 85.0124 56.5045 84.8455 56.6021 84.6421H58.2867C58.1728 85.0246 57.9815 85.3704 57.713 85.6797C57.4444 85.9889 57.1148 86.2331 56.7242 86.4121C56.3336 86.5911 55.8982 86.6807 55.418 86.6807ZM65.5855 86.6807C64.9996 86.6807 64.4706 86.5464 63.9986 86.2778C63.5347 86.0011 63.1645 85.6227 62.8878 85.1426C62.6192 84.6543 62.4849 84.0968 62.4849 83.4702C62.4849 82.8273 62.6192 82.2658 62.8878 81.7856C63.1645 81.2973 63.5388 80.9189 64.0108 80.6503C64.4828 80.3736 65.0118 80.2353 65.5977 80.2353C66.1918 80.2353 66.7208 80.3736 67.1847 80.6503C67.6567 80.9189 68.027 81.2973 68.2955 81.7856C68.5722 82.2658 68.7106 82.8232 68.7106 83.458C68.7106 84.0928 68.5722 84.6543 68.2955 85.1426C68.027 85.6227 67.6567 86.0011 67.1847 86.2778C66.7127 86.5464 66.1796 86.6807 65.5855 86.6807ZM65.5855 85.2524C65.8622 85.2524 66.1064 85.1873 66.318 85.0571C66.5377 84.9269 66.7086 84.7275 66.8307 84.459C66.9609 84.1904 67.026 83.8567 67.026 83.458C67.026 83.0592 66.9609 82.7296 66.8307 82.4692C66.7086 82.2006 66.5377 82.0013 66.318 81.8711C66.1064 81.7327 65.8663 81.6635 65.5977 81.6635C65.3373 81.6635 65.0973 81.7327 64.8775 81.8711C64.6578 82.0013 64.4828 82.2006 64.3526 82.4692C64.2305 82.7296 64.1695 83.0592 64.1695 83.458C64.1695 83.8567 64.2305 84.1904 64.3526 84.459C64.4828 84.7275 64.6537 84.9269 64.8653 85.0571C65.085 85.1873 65.3251 85.2524 65.5855 85.2524ZM70.4116 86.5342V79.8325C70.4116 79.3198 70.4971 78.9129 70.668 78.6117C70.8389 78.3106 71.083 78.0909 71.4004 77.9526C71.726 77.8142 72.1044 77.745 72.5357 77.745H73.2925V79.1489H72.7798C72.5194 79.1489 72.3322 79.2018 72.2183 79.3076C72.1125 79.4052 72.0596 79.5802 72.0596 79.8325V86.5342H70.4116ZM69.5694 81.7612V80.3818H73.3902V81.7612H69.5694ZM79.2917 86.5342L77.0456 77.9892H78.8034L80.2927 84.6665L82.0505 77.9892H83.8693L85.5783 84.6665L87.0798 77.9892H88.8499L86.5427 86.5342H84.5774L82.9416 80.3085L81.2448 86.5342H79.2917ZM92.2052 86.6807C91.6193 86.6807 91.0903 86.5464 90.6183 86.2778C90.1544 86.0011 89.7841 85.6227 89.5074 85.1426C89.2389 84.6543 89.1046 84.0968 89.1046 83.4702C89.1046 82.8273 89.2389 82.2658 89.5074 81.7856C89.7841 81.2973 90.1585 80.9189 90.6305 80.6503C91.1025 80.3736 91.6315 80.2353 92.2174 80.2353C92.8115 80.2353 93.3405 80.3736 93.8043 80.6503C94.2763 80.9189 94.6466 81.2973 94.9152 81.7856C95.1919 82.2658 95.3302 82.8232 95.3302 83.458C95.3302 84.0928 95.1919 84.6543 94.9152 85.1426C94.6466 85.6227 94.2763 86.0011 93.8043 86.2778C93.3323 86.5464 92.7993 86.6807 92.2052 86.6807ZM92.2052 85.2524C92.4819 85.2524 92.726 85.1873 92.9376 85.0571C93.1574 84.9269 93.3283 84.7275 93.4503 84.459C93.5805 84.1904 93.6456 83.8567 93.6456 83.458C93.6456 83.0592 93.5805 82.7296 93.4503 82.4692C93.3283 82.2006 93.1574 82.0013 92.9376 81.8711C92.726 81.7327 92.486 81.6635 92.2174 81.6635C91.957 81.6635 91.7169 81.7327 91.4972 81.8711C91.2775 82.0013 91.1025 82.2006 90.9723 82.4692C90.8502 82.7296 90.7892 83.0592 90.7892 83.458C90.7892 83.8567 90.8502 84.1904 90.9723 84.459C91.1025 84.7275 91.2734 84.9269 91.485 85.0571C91.7047 85.1873 91.9448 85.2524 92.2052 85.2524ZM96.7505 86.5342V80.3818H98.2154L98.3741 81.517C98.5206 81.2485 98.7037 81.0206 98.9234 80.8334C99.1513 80.6463 99.4076 80.4998 99.6925 80.394C99.9854 80.2882 100.307 80.2353 100.657 80.2353V81.9809H100.095C99.8512 81.9809 99.6233 82.0094 99.4117 82.0664C99.2083 82.1233 99.0292 82.2169 98.8746 82.3471C98.72 82.4692 98.602 82.6401 98.5206 82.8598C98.4392 83.0796 98.3985 83.3563 98.3985 83.6899V86.5342H96.7505ZM105.774 86.5342L103.149 83.165L105.505 80.3818H107.446L104.407 83.8608V82.5547L107.825 86.5342H105.774ZM101.745 86.5342V77.745H103.393V86.5342H101.745Z" fill="#263442"/>
<rect x="21.4265" y="96.0215" width="275.533" height="10.6812" rx="5.34062" fill="#E6E6E6"/>
<rect x="21.4265" y="114.332" width="213.625" height="10.6812" rx="5.34062" fill="#E6E6E6"/>
<rect x="21.4265" y="132.644" width="218.857" height="10.6812" rx="5.34062" fill="#E6E6E6"/>
<rect x="21.4265" y="150.953" width="175.26" height="10.6812" rx="5.34062" fill="#E6E6E6"/>
<rect x="21.4265" y="169.264" width="168.284" height="10.6812" rx="5.34062" fill="#E6E6E6"/>
<path d="M24.2586 218.015V210.8H21.7561V209.47H28.3846V210.8H25.8943V218.015H24.2586ZM29.5526 218.015V211.862H31.2005V218.015H29.5526ZM30.3826 211.02C30.0897 211.02 29.8455 210.935 29.6502 210.764C29.463 210.585 29.3694 210.361 29.3694 210.092C29.3694 209.824 29.463 209.604 29.6502 209.433C29.8455 209.254 30.0897 209.164 30.3826 209.164C30.6838 209.164 30.9279 209.254 31.1151 209.433C31.3104 209.604 31.408 209.824 31.408 210.092C31.408 210.361 31.3104 210.585 31.1151 210.764C30.9279 210.935 30.6838 211.02 30.3826 211.02ZM32.8657 218.015V211.862H34.3184L34.4527 212.68C34.648 212.387 34.9043 212.155 35.2217 211.984C35.5472 211.805 35.9175 211.716 36.3326 211.716C36.6418 211.716 36.9185 211.756 37.1627 211.838C37.4068 211.919 37.6225 212.037 37.8096 212.192C38.0049 212.346 38.1636 212.542 38.2857 212.778C38.5136 212.444 38.8106 212.184 39.1768 211.997C39.543 211.809 39.9418 211.716 40.3731 211.716C40.9102 211.716 41.3578 211.826 41.7159 212.045C42.074 212.257 42.3426 212.566 42.5216 212.973C42.7088 213.38 42.8024 213.88 42.8024 214.475V218.015H41.1666V214.621C41.1666 214.133 41.0689 213.758 40.8736 213.498C40.6864 213.238 40.3935 213.107 39.9947 213.107C39.7343 213.107 39.5024 213.172 39.2989 213.303C39.0955 213.433 38.9368 213.62 38.8228 213.864C38.717 214.108 38.6641 214.401 38.6641 214.743V218.015H37.0162V214.621C37.0162 214.133 36.9185 213.758 36.7232 213.498C36.5279 213.238 36.2268 213.107 35.8199 213.107C35.5676 213.107 35.3397 213.172 35.1363 213.303C34.941 213.433 34.7863 213.62 34.6724 213.864C34.5666 214.108 34.5137 214.401 34.5137 214.743V218.015H32.8657ZM47.3117 218.161C46.6932 218.161 46.1439 218.031 45.6638 217.771C45.1918 217.502 44.8215 217.132 44.5529 216.66C44.2925 216.18 44.1623 215.626 44.1623 214.999C44.1623 214.357 44.2925 213.791 44.5529 213.303C44.8215 212.806 45.1918 212.42 45.6638 212.143C46.1358 211.858 46.6851 211.716 47.3117 211.716C47.9221 211.716 48.4551 211.85 48.9109 212.119C49.3666 212.387 49.7206 212.749 49.9729 213.205C50.2252 213.661 50.3513 214.178 50.3513 214.755C50.3513 214.837 50.3513 214.93 50.3513 215.036C50.3513 215.134 50.3432 215.235 50.3269 215.341H45.3342V214.34H48.6912C48.6667 213.942 48.5243 213.628 48.2639 213.4C48.0116 213.172 47.6942 213.059 47.3117 213.059C47.035 213.059 46.7787 213.124 46.5427 213.254C46.3067 213.376 46.1195 213.567 45.9812 213.828C45.851 214.088 45.7859 214.418 45.7859 214.816V215.17C45.7859 215.504 45.8469 215.797 45.969 216.049C46.0992 216.293 46.2782 216.485 46.5061 216.623C46.7339 216.753 46.9984 216.818 47.2995 216.818C47.6006 216.818 47.8489 216.753 48.0442 216.623C48.2476 216.493 48.3982 216.326 48.4958 216.123H50.1804C50.0665 216.505 49.8752 216.851 49.6067 217.16C49.3381 217.469 49.0085 217.714 48.6179 217.893C48.2273 218.072 47.7919 218.161 47.3117 218.161ZM51.701 218.015V209.226H53.3489V218.015H51.701ZM54.992 218.015V211.862H56.64V218.015H54.992ZM55.8221 211.02C55.5291 211.02 55.285 210.935 55.0897 210.764C54.9025 210.585 54.8089 210.361 54.8089 210.092C54.8089 209.824 54.9025 209.604 55.0897 209.433C55.285 209.254 55.5291 209.164 55.8221 209.164C56.1232 209.164 56.3674 209.254 56.5545 209.433C56.7499 209.604 56.8475 209.824 56.8475 210.092C56.8475 210.361 56.7499 210.585 56.5545 210.764C56.3674 210.935 56.1232 211.02 55.8221 211.02ZM58.3052 218.015V211.862H59.7579L59.8799 212.863C60.0671 212.521 60.3316 212.245 60.6734 212.033C61.0233 211.822 61.4384 211.716 61.9185 211.716C62.4312 211.716 62.8626 211.822 63.2125 212.033C63.5624 212.245 63.8269 212.554 64.006 212.961C64.1931 213.368 64.2867 213.868 64.2867 214.462V218.015H62.651V214.621C62.651 214.133 62.5452 213.758 62.3336 213.498C62.1301 213.238 61.8127 213.107 61.3814 213.107C61.1047 213.107 60.8565 213.172 60.6368 213.303C60.4252 213.433 60.2584 213.62 60.1363 213.864C60.0142 214.1 59.9532 214.389 59.9532 214.731V218.015H58.3052ZM68.7934 218.161C68.1749 218.161 67.6256 218.031 67.1455 217.771C66.6735 217.502 66.3032 217.132 66.0346 216.66C65.7742 216.18 65.644 215.626 65.644 214.999C65.644 214.357 65.7742 213.791 66.0346 213.303C66.3032 212.806 66.6735 212.42 67.1455 212.143C67.6175 211.858 68.1668 211.716 68.7934 211.716C69.4038 211.716 69.9368 211.85 70.3926 212.119C70.8483 212.387 71.2023 212.749 71.4546 213.205C71.7069 213.661 71.833 214.178 71.833 214.755C71.833 214.837 71.833 214.93 71.833 215.036C71.833 215.134 71.8249 215.235 71.8086 215.341H66.8159V214.34H70.1728C70.1484 213.942 70.006 213.628 69.7456 213.4C69.4933 213.172 69.1759 213.059 68.7934 213.059C68.5167 213.059 68.2604 213.124 68.0244 213.254C67.7884 213.376 67.6012 213.567 67.4629 213.828C67.3327 214.088 67.2676 214.418 67.2676 214.816V215.17C67.2676 215.504 67.3286 215.797 67.4507 216.049C67.5809 216.293 67.7599 216.485 67.9878 216.623C68.2156 216.753 68.4801 216.818 68.7812 216.818C69.0823 216.818 69.3306 216.753 69.5259 216.623C69.7293 216.493 69.8799 216.326 69.9775 216.123H71.6621C71.5482 216.505 71.3569 216.851 71.0884 217.16C70.8198 217.469 70.4902 217.714 70.0996 217.893C69.709 218.072 69.2736 218.161 68.7934 218.161Z" fill="#263442"/>
<rect x="21.4265" y="227.502" width="275.533" height="10.6812" rx="5.34062" fill="#E6E6E6"/>
<path d="M26.1018 269.423C25.2473 269.423 24.5109 269.24 23.8924 268.874C23.282 268.499 22.81 267.982 22.4763 267.323C22.1508 266.656 21.988 265.887 21.988 265.016C21.988 264.145 22.1508 263.376 22.4763 262.709C22.81 262.042 23.282 261.521 23.8924 261.146C24.5109 260.772 25.2473 260.585 26.1018 260.585C27.1354 260.585 27.9817 260.841 28.6409 261.354C29.3001 261.867 29.7111 262.591 29.8739 263.527H28.0794C27.9736 263.071 27.7498 262.717 27.408 262.465C27.0743 262.204 26.6349 262.074 26.0896 262.074C25.5851 262.074 25.1497 262.196 24.7835 262.44C24.4254 262.676 24.1487 263.014 23.9534 263.454C23.7581 263.885 23.6604 264.406 23.6604 265.016C23.6604 265.618 23.7581 266.139 23.9534 266.579C24.1487 267.018 24.4254 267.356 24.7835 267.592C25.1497 267.828 25.5851 267.946 26.0896 267.946C26.6349 267.946 27.0743 267.828 27.408 267.592C27.7417 267.348 27.9614 267.01 28.0672 266.579H29.8739C29.7111 267.466 29.3001 268.161 28.6409 268.666C27.9817 269.171 27.1354 269.423 26.1018 269.423ZM34.1498 269.423C33.5638 269.423 33.0349 269.289 32.5629 269.02C32.099 268.743 31.7287 268.365 31.452 267.885C31.1834 267.396 31.0492 266.839 31.0492 266.212C31.0492 265.569 31.1834 265.008 31.452 264.528C31.7287 264.04 32.1031 263.661 32.5751 263.393C33.0471 263.116 33.576 262.977 34.162 262.977C34.7561 262.977 35.285 263.116 35.7489 263.393C36.2209 263.661 36.5912 264.04 36.8598 264.528C37.1365 265.008 37.2748 265.565 37.2748 266.2C37.2748 266.835 37.1365 267.396 36.8598 267.885C36.5912 268.365 36.2209 268.743 35.7489 269.02C35.2769 269.289 34.7439 269.423 34.1498 269.423ZM34.1498 267.995C34.4265 267.995 34.6706 267.93 34.8822 267.799C35.1019 267.669 35.2728 267.47 35.3949 267.201C35.5251 266.933 35.5902 266.599 35.5902 266.2C35.5902 265.801 35.5251 265.472 35.3949 265.211C35.2728 264.943 35.1019 264.743 34.8822 264.613C34.6706 264.475 34.4305 264.406 34.162 264.406C33.9016 264.406 33.6615 264.475 33.4418 264.613C33.222 264.743 33.0471 264.943 32.9169 265.211C32.7948 265.472 32.7338 265.801 32.7338 266.2C32.7338 266.599 32.7948 266.933 32.9169 267.201C33.0471 267.47 33.218 267.669 33.4296 267.799C33.6493 267.93 33.8894 267.995 34.1498 267.995ZM41.2098 269.423C40.6483 269.423 40.16 269.333 39.7449 269.154C39.3299 268.975 39.0044 268.727 38.7684 268.41C38.5324 268.092 38.3981 267.734 38.3655 267.335H40.0013C40.042 267.49 40.1112 267.632 40.2088 267.763C40.3065 267.885 40.4367 267.982 40.5994 268.056C40.7622 268.129 40.9575 268.166 41.1854 268.166C41.4051 268.166 41.5841 268.137 41.7225 268.08C41.8608 268.015 41.9626 267.93 42.0277 267.824C42.1009 267.718 42.1375 267.608 42.1375 267.494C42.1375 267.323 42.0887 267.193 41.9911 267.103C41.8934 267.006 41.751 266.929 41.5638 266.872C41.3766 266.815 41.1488 266.758 40.8802 266.701C40.5872 266.644 40.2983 266.575 40.0135 266.493C39.7368 266.404 39.4886 266.294 39.2689 266.164C39.0491 266.033 38.8742 265.867 38.744 265.663C38.6137 265.46 38.5486 265.207 38.5486 264.906C38.5486 264.54 38.6463 264.214 38.8416 263.93C39.0369 263.637 39.3218 263.405 39.6961 263.234C40.0705 263.063 40.5221 262.977 41.0511 262.977C41.7917 262.977 42.3776 263.144 42.8089 263.478C43.2403 263.812 43.4966 264.271 43.578 264.857H42.0277C41.9788 264.67 41.869 264.524 41.6981 264.418C41.5353 264.304 41.3156 264.247 41.0389 264.247C40.7459 264.247 40.5221 264.3 40.3675 264.406C40.2129 264.512 40.1356 264.65 40.1356 264.821C40.1356 264.935 40.1844 265.036 40.2821 265.126C40.3878 265.215 40.5343 265.293 40.7215 265.358C40.9087 265.415 41.1366 265.472 41.4051 265.529C41.8771 265.626 42.2922 265.74 42.6502 265.871C43.0083 265.993 43.2891 266.172 43.4925 266.408C43.696 266.636 43.7977 266.969 43.7977 267.409C43.7977 267.799 43.6919 268.149 43.4803 268.458C43.2687 268.76 42.9676 268.996 42.577 269.167C42.1945 269.337 41.7388 269.423 41.2098 269.423ZM47.7724 269.276C47.3411 269.276 46.9626 269.211 46.6371 269.081C46.3197 268.943 46.0715 268.719 45.8925 268.41C45.7134 268.092 45.6239 267.661 45.6239 267.116V264.503H44.5741V263.124H45.6239L45.807 261.452H47.2719V263.124H48.8954V264.503H47.2719V267.14C47.2719 267.417 47.3329 267.608 47.455 267.714C47.5771 267.82 47.7846 267.873 48.0776 267.873H48.8832V269.276H47.7724ZM53.192 269.276V260.731H58.8072V262.062H54.8399V264.296H58.441V265.578H54.8399V267.946H58.8072V269.276H53.192ZM62.7869 269.423C62.2253 269.423 61.737 269.333 61.322 269.154C60.907 268.975 60.5814 268.727 60.3454 268.41C60.1094 268.092 59.9752 267.734 59.9426 267.335H61.5784C61.619 267.49 61.6882 267.632 61.7859 267.763C61.8835 267.885 62.0137 267.982 62.1765 268.056C62.3393 268.129 62.5346 268.166 62.7624 268.166C62.9822 268.166 63.1612 268.137 63.2996 268.08C63.4379 268.015 63.5396 267.93 63.6047 267.824C63.678 267.718 63.7146 267.608 63.7146 267.494C63.7146 267.323 63.6658 267.193 63.5681 267.103C63.4705 267.006 63.328 266.929 63.1409 266.872C62.9537 266.815 62.7258 266.758 62.4573 266.701C62.1643 266.644 61.8754 266.575 61.5906 266.493C61.3139 266.404 61.0657 266.294 60.8459 266.164C60.6262 266.033 60.4512 265.867 60.321 265.663C60.1908 265.46 60.1257 265.207 60.1257 264.906C60.1257 264.54 60.2234 264.214 60.4187 263.93C60.614 263.637 60.8988 263.405 61.2732 263.234C61.6475 263.063 62.0992 262.977 62.6282 262.977C63.3687 262.977 63.9547 263.144 64.386 263.478C64.8173 263.812 65.0737 264.271 65.155 264.857H63.6047C63.5559 264.67 63.446 264.524 63.2751 264.418C63.1124 264.304 62.8927 264.247 62.616 264.247C62.323 264.247 62.0992 264.3 61.9446 264.406C61.7899 264.512 61.7126 264.65 61.7126 264.821C61.7126 264.935 61.7615 265.036 61.8591 265.126C61.9649 265.215 62.1114 265.293 62.2986 265.358C62.4858 265.415 62.7136 265.472 62.9822 265.529C63.4542 265.626 63.8692 265.74 64.2273 265.871C64.5854 265.993 64.8661 266.172 65.0696 266.408C65.273 266.636 65.3748 266.969 65.3748 267.409C65.3748 267.799 65.269 268.149 65.0574 268.458C64.8458 268.76 64.5447 268.996 64.1541 269.167C63.7716 269.337 63.3158 269.423 62.7869 269.423ZM69.3494 269.276C68.9181 269.276 68.5397 269.211 68.2142 269.081C67.8968 268.943 67.6486 268.719 67.4695 268.41C67.2905 268.092 67.201 267.661 67.201 267.116V264.503H66.1512V263.124H67.201L67.3841 261.452H68.8489V263.124H70.4725V264.503H68.8489V267.14C68.8489 267.417 68.91 267.608 69.0321 267.714C69.1541 267.82 69.3616 267.873 69.6546 267.873H70.4603V269.276H69.3494ZM71.8961 269.276V263.124H73.544V269.276H71.8961ZM72.7261 262.282C72.4332 262.282 72.189 262.196 71.9937 262.025C71.8065 261.846 71.7129 261.622 71.7129 261.354C71.7129 261.085 71.8065 260.866 71.9937 260.695C72.189 260.516 72.4332 260.426 72.7261 260.426C73.0273 260.426 73.2714 260.516 73.4586 260.695C73.6539 260.866 73.7515 261.085 73.7515 261.354C73.7515 261.622 73.6539 261.846 73.4586 262.025C73.2714 262.196 73.0273 262.282 72.7261 262.282ZM75.2092 269.276V263.124H76.6619L76.7962 263.942C76.9915 263.649 77.2478 263.417 77.5652 263.246C77.8907 263.067 78.261 262.977 78.6761 262.977C78.9853 262.977 79.262 263.018 79.5062 263.1C79.7503 263.181 79.966 263.299 80.1531 263.454C80.3484 263.608 80.5071 263.804 80.6292 264.04C80.8571 263.706 81.1541 263.445 81.5203 263.258C81.8865 263.071 82.2853 262.977 82.7166 262.977C83.2537 262.977 83.7013 263.087 84.0594 263.307C84.4175 263.519 84.686 263.828 84.8651 264.235C85.0523 264.642 85.1459 265.142 85.1459 265.736V269.276H83.5101V265.883C83.5101 265.394 83.4124 265.02 83.2171 264.76C83.0299 264.499 82.737 264.369 82.3382 264.369C82.0778 264.369 81.8459 264.434 81.6424 264.564C81.439 264.695 81.2803 264.882 81.1663 265.126C81.0605 265.37 81.0076 265.663 81.0076 266.005V269.276H79.3597V265.883C79.3597 265.394 79.262 265.02 79.0667 264.76C78.8714 264.499 78.5703 264.369 78.1634 264.369C77.9111 264.369 77.6832 264.434 77.4798 264.564C77.2845 264.695 77.1298 264.882 77.0159 265.126C76.9101 265.37 76.8572 265.663 76.8572 266.005V269.276H75.2092ZM88.7763 269.423C88.2636 269.423 87.8405 269.341 87.5068 269.179C87.1731 269.008 86.9249 268.784 86.7622 268.507C86.6075 268.222 86.5302 267.909 86.5302 267.567C86.5302 267.193 86.6238 266.863 86.811 266.579C87.0063 266.294 87.2952 266.07 87.6777 265.907C88.0683 265.744 88.5566 265.663 89.1425 265.663H90.6684C90.6684 265.362 90.6277 265.114 90.5464 264.918C90.465 264.715 90.3388 264.564 90.1679 264.467C89.997 264.369 89.7692 264.32 89.4843 264.32C89.1751 264.32 88.9106 264.389 88.6909 264.528C88.4793 264.658 88.3491 264.861 88.3003 265.138H86.7011C86.7418 264.699 86.8842 264.32 87.1284 264.003C87.3806 263.677 87.7102 263.425 88.1171 263.246C88.5322 263.067 88.992 262.977 89.4966 262.977C90.0744 262.977 90.5748 263.075 90.998 263.27C91.4212 263.466 91.7467 263.747 91.9746 264.113C92.2025 264.479 92.3164 264.931 92.3164 265.468V269.276H90.9248L90.7417 268.336C90.6522 268.499 90.5464 268.646 90.4243 268.776C90.3022 268.906 90.1598 269.02 89.997 269.118C89.8343 269.215 89.6512 269.289 89.4477 269.337C89.2443 269.394 89.0205 269.423 88.7763 269.423ZM89.167 268.153C89.3785 268.153 89.5657 268.117 89.7285 268.043C89.8994 267.962 90.0459 267.856 90.1679 267.726C90.29 267.588 90.3836 267.433 90.4487 267.262C90.522 267.083 90.5708 266.892 90.5952 266.688V266.676H89.3379C89.0856 266.676 88.8781 266.709 88.7153 266.774C88.5607 266.831 88.4467 266.916 88.3735 267.03C88.3003 267.144 88.2636 267.274 88.2636 267.421C88.2636 267.584 88.3003 267.718 88.3735 267.824C88.4467 267.93 88.5525 268.011 88.6909 268.068C88.8292 268.125 88.9879 268.153 89.167 268.153ZM96.5532 269.276C96.1219 269.276 95.7435 269.211 95.418 269.081C95.1006 268.943 94.8524 268.719 94.6733 268.41C94.4943 268.092 94.4048 267.661 94.4048 267.116V264.503H93.355V263.124H94.4048L94.5879 261.452H96.0527V263.124H97.6763V264.503H96.0527V267.14C96.0527 267.417 96.1138 267.608 96.2358 267.714C96.3579 267.82 96.5654 267.873 96.8584 267.873H97.6641V269.276H96.5532ZM101.862 269.423C101.244 269.423 100.695 269.293 100.214 269.032C99.7424 268.764 99.3721 268.393 99.1036 267.921C98.8432 267.441 98.7129 266.888 98.7129 266.261C98.7129 265.618 98.8432 265.053 99.1036 264.564C99.3721 264.068 99.7424 263.681 100.214 263.405C100.686 263.12 101.236 262.977 101.862 262.977C102.473 262.977 103.006 263.112 103.462 263.38C103.917 263.649 104.271 264.011 104.524 264.467C104.776 264.922 104.902 265.439 104.902 266.017C104.902 266.098 104.902 266.192 104.902 266.298C104.902 266.395 104.894 266.497 104.878 266.603H99.8848V265.602H103.242C103.217 265.203 103.075 264.89 102.815 264.662C102.562 264.434 102.245 264.32 101.862 264.32C101.586 264.32 101.329 264.385 101.093 264.516C100.857 264.638 100.67 264.829 100.532 265.089C100.402 265.35 100.336 265.679 100.336 266.078V266.432C100.336 266.766 100.398 267.059 100.52 267.311C100.65 267.555 100.829 267.746 101.057 267.885C101.285 268.015 101.549 268.08 101.85 268.08C102.151 268.08 102.399 268.015 102.595 267.885C102.798 267.755 102.949 267.588 103.046 267.384H104.731C104.617 267.767 104.426 268.113 104.157 268.422C103.889 268.731 103.559 268.975 103.169 269.154C102.778 269.333 102.343 269.423 101.862 269.423Z" fill="#263442"/>
<path d="M30.5775 285.896C30.2682 285.896 29.9875 285.823 29.7352 285.676C29.4829 285.522 29.2795 285.318 29.1248 285.066C28.9783 284.805 28.9051 284.521 28.9051 284.211C28.9051 283.894 28.9783 283.609 29.1248 283.357C29.2795 283.096 29.4829 282.893 29.7352 282.747C29.9875 282.592 30.2682 282.515 30.5775 282.515C30.8949 282.515 31.1797 282.592 31.432 282.747C31.6924 282.893 31.8958 283.096 32.0423 283.357C32.197 283.609 32.2743 283.894 32.2743 284.211C32.2743 284.521 32.197 284.805 32.0423 285.066C31.8958 285.318 31.6924 285.522 31.432 285.676C31.1797 285.823 30.8949 285.896 30.5775 285.896ZM43.0087 289.338V278.608H43.8144V289.338H43.0087ZM43.5214 288.423C42.9029 288.423 42.3495 288.317 41.8613 288.105C41.3811 287.894 40.9986 287.585 40.7138 287.178C40.4371 286.771 40.2947 286.278 40.2865 285.701H42.0322C42.0403 285.953 42.1054 286.181 42.2275 286.384C42.3495 286.588 42.5164 286.75 42.728 286.873C42.9477 286.986 43.2081 287.043 43.5092 287.043C43.7696 287.043 43.9934 287.003 44.1806 286.921C44.3759 286.832 44.5265 286.71 44.6323 286.555C44.7381 286.401 44.791 286.217 44.791 286.006C44.791 285.762 44.7299 285.558 44.6079 285.395C44.4939 285.233 44.3312 285.094 44.1196 284.98C43.9161 284.867 43.6761 284.765 43.3994 284.675C43.1308 284.578 42.846 284.476 42.5449 284.37C41.8694 284.15 41.3526 283.857 40.9946 283.491C40.6446 283.125 40.4696 282.641 40.4696 282.039C40.4696 281.526 40.5917 281.086 40.8359 280.72C41.0881 280.354 41.434 280.073 41.8735 279.878C42.3129 279.683 42.8134 279.585 43.3749 279.585C43.9527 279.585 44.4573 279.687 44.8886 279.89C45.3281 280.085 45.674 280.37 45.9262 280.745C46.1867 281.119 46.3209 281.558 46.3291 282.063H44.5712C44.5631 281.876 44.5061 281.701 44.4003 281.538C44.3027 281.367 44.1643 281.233 43.9853 281.135C43.8063 281.029 43.5947 280.976 43.3505 280.976C43.1389 280.968 42.9436 281.001 42.7646 281.074C42.5937 281.147 42.4553 281.257 42.3495 281.404C42.2519 281.542 42.2031 281.717 42.2031 281.929C42.2031 282.132 42.2519 282.303 42.3495 282.441C42.4553 282.58 42.5978 282.702 42.7768 282.808C42.9558 282.905 43.1674 282.999 43.4116 283.088C43.6557 283.17 43.9202 283.255 44.205 283.345C44.6282 283.491 45.0188 283.666 45.3769 283.87C45.735 284.065 46.0198 284.321 46.2314 284.639C46.443 284.956 46.5488 285.375 46.5488 285.896C46.5488 286.344 46.4308 286.759 46.1948 287.141C45.9588 287.524 45.617 287.833 45.1694 288.069C44.7299 288.305 44.1806 288.423 43.5214 288.423ZM51.1572 288.423C50.5143 288.423 49.969 288.305 49.5214 288.069C49.082 287.833 48.728 287.515 48.4594 287.117C48.199 286.718 48.0077 286.274 47.8857 285.786C47.7717 285.29 47.7148 284.789 47.7148 284.285C47.7148 283.324 47.849 282.494 48.1176 281.794C48.3862 281.095 48.7727 280.553 49.2773 280.171C49.7818 279.78 50.3922 279.585 51.1084 279.585C51.7106 279.585 52.2192 279.703 52.6342 279.939C53.0493 280.167 53.3707 280.468 53.5986 280.842C53.8265 281.217 53.9608 281.619 54.0014 282.051H52.4633C52.3982 281.693 52.2477 281.42 52.0117 281.233C51.7757 281.038 51.4705 280.94 51.0961 280.94C50.7462 280.94 50.441 281.046 50.1806 281.257C49.9202 281.469 49.7167 281.786 49.5703 282.209C49.4319 282.633 49.3505 283.166 49.3261 283.809C49.3261 283.817 49.3261 283.829 49.3261 283.845C49.3261 283.861 49.3261 283.874 49.3261 283.882C49.4563 283.662 49.6272 283.467 49.8388 283.296C50.0504 283.125 50.2945 282.991 50.5712 282.893C50.8479 282.795 51.1409 282.747 51.4502 282.747C51.9222 282.747 52.3616 282.86 52.7685 283.088C53.1754 283.316 53.505 283.638 53.7573 284.053C54.0096 284.468 54.1357 284.96 54.1357 285.53C54.1357 286.042 54.0096 286.523 53.7573 286.97C53.5132 287.41 53.1673 287.764 52.7197 288.032C52.2721 288.293 51.7513 288.423 51.1572 288.423ZM51.0595 287.007C51.3525 287.007 51.6088 286.946 51.8286 286.824C52.0564 286.702 52.2355 286.535 52.3657 286.323C52.4959 286.103 52.561 285.855 52.561 285.579C52.561 285.286 52.4959 285.033 52.3657 284.822C52.2355 284.61 52.0564 284.443 51.8286 284.321C51.6007 284.199 51.3403 284.138 51.0473 284.138C50.7625 284.138 50.5061 284.199 50.2783 284.321C50.0504 284.443 49.8673 284.614 49.7289 284.834C49.5987 285.046 49.5336 285.29 49.5336 285.566C49.5336 285.851 49.5987 286.103 49.7289 286.323C49.8673 286.535 50.0504 286.702 50.2783 286.824C50.5143 286.946 50.7747 287.007 51.0595 287.007ZM55.1097 289.778L55.8055 286.677H57.3925L56.1839 289.778H55.1097ZM61.7393 288.423C61.1208 288.423 60.5837 288.313 60.128 288.093C59.6804 287.874 59.3305 287.572 59.0782 287.19C58.8259 286.807 58.6794 286.372 58.6387 285.884H60.2501C60.307 286.201 60.4698 286.47 60.7384 286.689C61.0069 286.909 61.3446 287.019 61.7515 287.019C62.0445 287.019 62.3009 286.946 62.5206 286.799C62.7403 286.653 62.9112 286.458 63.0333 286.213C63.1554 285.961 63.2164 285.676 63.2164 285.359C63.2164 285.033 63.1513 284.753 63.0211 284.517C62.899 284.281 62.7281 284.097 62.5084 283.967C62.2968 283.837 62.0527 283.772 61.776 283.772C61.426 283.772 61.1249 283.857 60.8726 284.028C60.6285 284.191 60.4535 284.39 60.3477 284.626H58.7486L59.4566 279.731H64.254V281.172H60.6773L60.3233 283.076C60.5023 282.889 60.7424 282.738 61.0435 282.624C61.3446 282.502 61.6824 282.441 62.0567 282.441C62.5206 282.441 62.9234 282.523 63.2652 282.685C63.607 282.84 63.8919 283.056 64.1197 283.332C64.3476 283.601 64.5185 283.91 64.6324 284.26C64.7464 284.602 64.8033 284.964 64.8033 285.347C64.8033 285.794 64.726 286.205 64.5714 286.58C64.4249 286.954 64.2133 287.279 63.9366 287.556C63.6681 287.833 63.3466 288.049 62.9723 288.203C62.606 288.35 62.1951 288.423 61.7393 288.423ZM69.7359 288.423C68.9628 288.423 68.2954 288.236 67.7339 287.861C67.1724 287.487 66.7411 286.97 66.4399 286.311C66.147 285.644 66.0005 284.875 66.0005 284.004C66.0005 283.133 66.147 282.368 66.4399 281.709C66.7411 281.042 67.1683 280.521 67.7217 280.146C68.2832 279.772 68.9546 279.585 69.7359 279.585C70.5171 279.585 71.1844 279.772 71.7378 280.146C72.2994 280.521 72.7266 281.042 73.0196 281.709C73.3207 282.368 73.4713 283.133 73.4713 284.004C73.4713 284.875 73.3207 285.644 73.0196 286.311C72.7266 286.97 72.2994 287.487 71.7378 287.861C71.1844 288.236 70.5171 288.423 69.7359 288.423ZM69.7359 286.946C70.1428 286.946 70.5008 286.828 70.8101 286.592C71.1193 286.348 71.3594 286.006 71.5303 285.566C71.7094 285.127 71.7989 284.606 71.7989 284.004C71.7989 283.394 71.7094 282.873 71.5303 282.441C71.3594 282.002 71.1193 281.664 70.8101 281.428C70.5008 281.192 70.1428 281.074 69.7359 281.074C69.329 281.074 68.9709 281.192 68.6616 281.428C68.3524 281.664 68.1083 282.002 67.9292 282.441C67.7583 282.873 67.6729 283.394 67.6729 284.004C67.6729 284.606 67.7583 285.127 67.9292 285.566C68.1083 286.006 68.3524 286.348 68.6616 286.592C68.9709 286.828 69.329 286.946 69.7359 286.946ZM78.3309 288.423C77.5578 288.423 76.8905 288.236 76.329 287.861C75.7674 287.487 75.3361 286.97 75.035 286.311C74.742 285.644 74.5956 284.875 74.5956 284.004C74.5956 283.133 74.742 282.368 75.035 281.709C75.3361 281.042 75.7634 280.521 76.3168 280.146C76.8783 279.772 77.5497 279.585 78.3309 279.585C79.1122 279.585 79.7795 279.772 80.3329 280.146C80.8944 280.521 81.3217 281.042 81.6147 281.709C81.9158 282.368 82.0663 283.133 82.0663 284.004C82.0663 284.875 81.9158 285.644 81.6147 286.311C81.3217 286.97 80.8944 287.487 80.3329 287.861C79.7795 288.236 79.1122 288.423 78.3309 288.423ZM78.3309 286.946C78.7378 286.946 79.0959 286.828 79.4052 286.592C79.7144 286.348 79.9545 286.006 80.1254 285.566C80.3044 285.127 80.3939 284.606 80.3939 284.004C80.3939 283.394 80.3044 282.873 80.1254 282.441C79.9545 282.002 79.7144 281.664 79.4052 281.428C79.0959 281.192 78.7378 281.074 78.3309 281.074C77.924 281.074 77.566 281.192 77.2567 281.428C76.9475 281.664 76.7033 282.002 76.5243 282.441C76.3534 282.873 76.2679 283.394 76.2679 284.004C76.2679 284.606 76.3534 285.127 76.5243 285.566C76.7033 286.006 76.9475 286.348 77.2567 286.592C77.566 286.828 77.924 286.946 78.3309 286.946Z" fill="#263442"/>
<path fill-rule="evenodd" clip-rule="evenodd" d="M346.66 323.051H0.5V322.179H346.66V323.051Z" fill="#E9EAEB"/>
<path d="M21.4265 360.452C21.4265 351.353 28.8028 343.977 37.902 343.977H309.257C318.357 343.977 325.733 351.353 325.733 360.452C325.733 369.551 318.357 376.928 309.257 376.928H37.902C28.8028 376.928 21.4265 369.551 21.4265 360.452Z" fill="#EAEAEA"/>
<path d="M135.998 363.952L132.824 355.407H134.142L136.73 362.683L139.342 355.407H140.636L137.463 363.952H135.998ZM141.792 363.952V357.8H143.013V363.952H141.792ZM142.415 356.64C142.179 356.64 141.984 356.567 141.829 356.42C141.682 356.274 141.609 356.087 141.609 355.859C141.609 355.639 141.682 355.46 141.829 355.322C141.984 355.175 142.179 355.102 142.415 355.102C142.643 355.102 142.834 355.175 142.989 355.322C143.143 355.46 143.221 355.639 143.221 355.859C143.221 356.087 143.143 356.274 142.989 356.42C142.834 356.567 142.643 356.64 142.415 356.64ZM147.542 364.099C146.956 364.099 146.435 363.964 145.979 363.696C145.524 363.427 145.166 363.053 144.905 362.573C144.653 362.093 144.527 361.535 144.527 360.9C144.527 360.249 144.653 359.684 144.905 359.204C145.166 358.715 145.524 358.337 145.979 358.068C146.435 357.792 146.964 357.653 147.566 357.653C148.168 357.653 148.685 357.788 149.117 358.056C149.548 358.325 149.882 358.683 150.118 359.13C150.354 359.57 150.472 360.058 150.472 360.595C150.472 360.677 150.467 360.766 150.459 360.864C150.459 360.953 150.455 361.055 150.447 361.169H145.418V360.302H149.251C149.226 359.79 149.056 359.391 148.738 359.106C148.421 358.813 148.026 358.666 147.554 358.666C147.22 358.666 146.915 358.744 146.639 358.898C146.362 359.045 146.138 359.265 145.967 359.558C145.804 359.842 145.723 360.205 145.723 360.644V360.986C145.723 361.442 145.804 361.828 145.967 362.145C146.138 362.455 146.362 362.691 146.639 362.854C146.915 363.008 147.216 363.085 147.542 363.085C147.932 363.085 148.254 363 148.506 362.829C148.758 362.658 148.946 362.426 149.068 362.133H150.288C150.183 362.508 150.004 362.845 149.751 363.146C149.499 363.439 149.186 363.671 148.811 363.842C148.445 364.013 148.022 364.099 147.542 364.099ZM152.834 363.952L151.028 357.8H152.236L153.579 362.927L153.347 362.915L154.836 357.8H156.204L157.693 362.915L157.461 362.927L158.792 357.8H160.024L158.218 363.952H156.961L155.398 358.618H155.642L154.08 363.952H152.834ZM164.311 363.952V355.407H169.706V356.408H165.531V359.143H169.34V360.119H165.531V362.951H169.706V363.952H164.311ZM173.604 364.099C173.083 364.099 172.627 364.013 172.236 363.842C171.846 363.671 171.537 363.431 171.309 363.122C171.081 362.813 170.943 362.451 170.894 362.036H172.139C172.18 362.231 172.257 362.41 172.371 362.573C172.493 362.736 172.656 362.866 172.859 362.963C173.071 363.061 173.319 363.11 173.604 363.11C173.872 363.11 174.092 363.073 174.263 363C174.442 362.919 174.572 362.813 174.654 362.683C174.735 362.544 174.776 362.398 174.776 362.243C174.776 362.015 174.719 361.844 174.605 361.73C174.499 361.608 174.336 361.515 174.116 361.45C173.905 361.376 173.648 361.311 173.347 361.254C173.063 361.206 172.786 361.14 172.517 361.059C172.257 360.97 172.021 360.86 171.809 360.729C171.606 360.599 171.443 360.436 171.321 360.241C171.199 360.038 171.138 359.79 171.138 359.497C171.138 359.147 171.231 358.833 171.419 358.557C171.606 358.272 171.87 358.052 172.212 357.897C172.562 357.735 172.973 357.653 173.445 357.653C174.129 357.653 174.678 357.816 175.093 358.142C175.508 358.467 175.752 358.927 175.825 359.521H174.641C174.609 359.244 174.487 359.033 174.275 358.886C174.063 358.732 173.783 358.654 173.433 358.654C173.083 358.654 172.814 358.723 172.627 358.862C172.44 359 172.346 359.183 172.346 359.411C172.346 359.558 172.399 359.688 172.505 359.802C172.611 359.916 172.765 360.013 172.969 360.095C173.181 360.168 173.437 360.237 173.738 360.302C174.169 360.384 174.556 360.485 174.898 360.607C175.239 360.729 175.512 360.909 175.716 361.145C175.919 361.381 176.021 361.718 176.021 362.158C176.029 362.54 175.931 362.878 175.728 363.171C175.532 363.464 175.252 363.692 174.885 363.854C174.527 364.017 174.1 364.099 173.604 364.099ZM179.747 363.952C179.356 363.952 179.018 363.891 178.734 363.769C178.449 363.647 178.229 363.444 178.074 363.159C177.92 362.874 177.842 362.487 177.842 361.999V358.837H176.78V357.8H177.842L177.989 356.262H179.063V357.8H180.809V358.837H179.063V362.011C179.063 362.361 179.136 362.601 179.283 362.731C179.429 362.854 179.682 362.915 180.04 362.915H180.748V363.952H179.747ZM182.24 363.952V357.8H183.461V363.952H182.24ZM182.863 356.64C182.627 356.64 182.432 356.567 182.277 356.42C182.13 356.274 182.057 356.087 182.057 355.859C182.057 355.639 182.13 355.46 182.277 355.322C182.432 355.175 182.627 355.102 182.863 355.102C183.091 355.102 183.282 355.175 183.437 355.322C183.591 355.46 183.669 355.639 183.669 355.859C183.669 356.087 183.591 356.274 183.437 356.42C183.282 356.567 183.091 356.64 182.863 356.64ZM185.207 363.952V357.8H186.305L186.391 358.666C186.586 358.349 186.847 358.101 187.172 357.922C187.498 357.743 187.864 357.653 188.271 357.653C188.58 357.653 188.861 357.698 189.113 357.788C189.365 357.869 189.589 357.995 189.784 358.166C189.98 358.337 190.138 358.548 190.26 358.801C190.48 358.443 190.773 358.162 191.139 357.958C191.514 357.755 191.908 357.653 192.323 357.653C192.82 357.653 193.247 357.755 193.605 357.958C193.963 358.154 194.236 358.451 194.423 358.85C194.61 359.24 194.704 359.728 194.704 360.314V363.952H193.495V360.436C193.495 359.867 193.377 359.436 193.141 359.143C192.913 358.85 192.576 358.703 192.128 358.703C191.827 358.703 191.558 358.78 191.322 358.935C191.086 359.09 190.899 359.313 190.761 359.606C190.631 359.899 190.566 360.257 190.566 360.681V363.952H189.345V360.436C189.345 359.867 189.227 359.436 188.991 359.143C188.763 358.85 188.425 358.703 187.978 358.703C187.693 358.703 187.432 358.78 187.196 358.935C186.96 359.09 186.773 359.313 186.635 359.606C186.497 359.899 186.427 360.257 186.427 360.681V363.952H185.207ZM198.32 364.099C197.815 364.099 197.396 364.013 197.063 363.842C196.729 363.671 196.481 363.444 196.318 363.159C196.155 362.866 196.074 362.552 196.074 362.219C196.074 361.812 196.18 361.466 196.391 361.181C196.603 360.888 196.904 360.664 197.295 360.51C197.685 360.355 198.153 360.278 198.698 360.278H200.297C200.297 359.92 200.245 359.623 200.139 359.387C200.033 359.151 199.874 358.976 199.663 358.862C199.459 358.74 199.199 358.679 198.881 358.679C198.515 358.679 198.202 358.768 197.941 358.947C197.681 359.118 197.518 359.374 197.453 359.716H196.232C196.281 359.285 196.428 358.919 196.672 358.618C196.924 358.308 197.246 358.072 197.636 357.91C198.027 357.739 198.442 357.653 198.881 357.653C199.459 357.653 199.943 357.755 200.334 357.958C200.725 358.162 201.018 358.451 201.213 358.825C201.416 359.191 201.518 359.631 201.518 360.144V363.952H200.456L200.358 362.915C200.269 363.077 200.163 363.232 200.041 363.378C199.919 363.525 199.773 363.651 199.602 363.757C199.439 363.863 199.248 363.944 199.028 364.001C198.816 364.066 198.58 364.099 198.32 364.099ZM198.552 363.11C198.812 363.11 199.048 363.057 199.26 362.951C199.471 362.845 199.65 362.703 199.797 362.524C199.952 362.337 200.066 362.129 200.139 361.901C200.22 361.665 200.265 361.425 200.273 361.181V361.145H198.82C198.47 361.145 198.186 361.189 197.966 361.279C197.754 361.36 197.6 361.474 197.502 361.621C197.404 361.767 197.356 361.938 197.356 362.133C197.356 362.337 197.4 362.512 197.49 362.658C197.587 362.797 197.726 362.906 197.905 362.988C198.084 363.069 198.3 363.11 198.552 363.11ZM205.484 363.952C205.094 363.952 204.756 363.891 204.471 363.769C204.186 363.647 203.966 363.444 203.812 363.159C203.657 362.874 203.58 362.487 203.58 361.999V358.837H202.518V357.8H203.58L203.726 356.262H204.801V357.8H206.546V358.837H204.801V362.011C204.801 362.361 204.874 362.601 205.02 362.731C205.167 362.854 205.419 362.915 205.777 362.915H206.485V363.952H205.484ZM210.509 364.099C209.923 364.099 209.402 363.964 208.946 363.696C208.49 363.427 208.132 363.053 207.872 362.573C207.62 362.093 207.494 361.535 207.494 360.9C207.494 360.249 207.62 359.684 207.872 359.204C208.132 358.715 208.49 358.337 208.946 358.068C209.402 357.792 209.931 357.653 210.533 357.653C211.135 357.653 211.652 357.788 212.083 358.056C212.515 358.325 212.848 358.683 213.084 359.13C213.32 359.57 213.438 360.058 213.438 360.595C213.438 360.677 213.434 360.766 213.426 360.864C213.426 360.953 213.422 361.055 213.414 361.169H208.385V360.302H212.218C212.193 359.79 212.022 359.391 211.705 359.106C211.388 358.813 210.993 358.666 210.521 358.666C210.187 358.666 209.882 358.744 209.605 358.898C209.329 359.045 209.105 359.265 208.934 359.558C208.771 359.842 208.69 360.205 208.69 360.644V360.986C208.69 361.442 208.771 361.828 208.934 362.145C209.105 362.455 209.329 362.691 209.605 362.854C209.882 363.008 210.183 363.085 210.509 363.085C210.899 363.085 211.221 363 211.473 362.829C211.725 362.658 211.913 362.426 212.035 362.133H213.255C213.15 362.508 212.971 362.845 212.718 363.146C212.466 363.439 212.153 363.671 211.778 363.842C211.412 364.013 210.989 364.099 210.509 364.099Z" fill="#FAFAFB"/>
</g>
<path d="M21.4268 0.435547H325.733C337.05 0.435761 346.224 9.61027 346.224 20.9268V376.928C346.224 388.244 337.05 397.418 325.733 397.418H21.4297C10.1113 397.418 0.935547 388.242 0.935547 376.924V20.9268C0.935547 9.61014 10.1101 0.435547 21.4268 0.435547Z" stroke="#EFF2F5" stroke-width="0.871938"/>
<defs>
<clipPath id="clip0_969_133603">
<path d="M0.5 20.9265C0.5 9.3691 9.86912 0 21.4265 0H325.733C337.29 0 346.66 9.36912 346.66 20.9265V376.928C346.66 388.485 337.29 397.854 325.733 397.854H21.43C9.87069 397.854 0.5 388.483 0.5 376.924V20.9265Z" fill="white"/>
</clipPath>
</defs>
</svg>
