<svg width="360" height="208" viewBox="0 0 360 208" fill="none" xmlns="http://www.w3.org/2000/svg">
<g filter="url(#filter0_dd_968_132783)">
<path d="M4.5 -56H355.5V167.6C355.5 185.494 340.994 200 323.1 200H36.9C19.006 200 4.5 185.494 4.5 167.6V-56Z" fill="white" shape-rendering="crispEdges"/>
<g clip-path="url(#clip0_968_132783)">
<rect x="20.7" y="70.2002" width="318.6" height="113.4" rx="8.1" fill="white"/>
<g clip-path="url(#clip1_968_132783)">
<rect width="318.6" height="113.4" transform="translate(20.7 70.2002)" fill="white"/>
<path d="M20.7 94.4994C20.7 90.0259 24.3265 86.3994 28.8 86.3994H331.2C335.673 86.3994 339.3 90.0259 339.3 94.4994V161.999C339.3 173.929 329.629 183.599 317.7 183.599H42.3C30.3707 183.599 20.7 173.929 20.7 161.999V94.4994Z" fill="#FAFAFB"/>
<rect x="28.8" y="94.499" width="234.9" height="9.45" rx="4.725" fill="#E6E6E6"/>
<rect x="28.8" y="108.001" width="207.225" height="9.45" rx="4.725" fill="#E6E6E6"/>
<rect x="28.8" y="121.5" width="261.9" height="9.45" rx="4.725" fill="#E6E6E6"/>
<rect x="28.8" y="135" width="147.825" height="9.45" rx="4.725" fill="#E6E6E6"/>
<rect x="28.8" y="151.2" width="24.3" height="24.3" rx="12.15" fill="#EAEAEA"/>
<path d="M43.7625 160.538L38.1375 166.163M38.1375 160.538L43.7625 166.163" stroke="#263442" stroke-width="0.945" stroke-linecap="round" stroke-linejoin="round"/>
<line x1="64.9042" y1="162.338" x2="64.9042" y2="164.363" stroke="#263442" stroke-width="0.675" stroke-linecap="round"/>
<line x1="66.2542" y1="162.338" x2="66.2542" y2="164.363" stroke="#263442" stroke-width="0.675" stroke-linecap="round"/>
<line x1="67.6042" y1="162.338" x2="67.6042" y2="164.363" stroke="#263442" stroke-width="0.675" stroke-linecap="round"/>
<line x1="68.9541" y1="162.338" x2="68.9541" y2="164.363" stroke="#263442" stroke-width="0.675" stroke-linecap="round"/>
<line x1="70.3041" y1="162.338" x2="70.3041" y2="164.363" stroke="#263442" stroke-width="0.675" stroke-linecap="round"/>
<line x1="71.6542" y1="162.338" x2="71.6542" y2="164.363" stroke="#263442" stroke-width="0.675" stroke-linecap="round"/>
<line x1="73.0042" y1="161.663" x2="73.0042" y2="165.038" stroke="#263442" stroke-width="0.675" stroke-linecap="round"/>
<line x1="74.3542" y1="161.663" x2="74.3542" y2="165.038" stroke="#263442" stroke-width="0.675" stroke-linecap="round"/>
<line x1="75.7041" y1="161.663" x2="75.7041" y2="165.038" stroke="#263442" stroke-width="0.675" stroke-linecap="round"/>
<line x1="77.0541" y1="161.663" x2="77.0541" y2="165.038" stroke="#263442" stroke-width="0.675" stroke-linecap="round"/>
<line x1="78.4042" y1="161.663" x2="78.4042" y2="165.038" stroke="#263442" stroke-width="0.675" stroke-linecap="round"/>
<line x1="79.7542" y1="160.65" x2="79.7542" y2="166.05" stroke="#263442" stroke-width="0.675" stroke-linecap="round"/>
<line x1="81.1042" y1="160.65" x2="81.1042" y2="166.05" stroke="#263442" stroke-width="0.675" stroke-linecap="round"/>
<line x1="82.4541" y1="160.65" x2="82.4541" y2="166.05" stroke="#263442" stroke-width="0.675" stroke-linecap="round"/>
<line x1="83.8041" y1="160.65" x2="83.8041" y2="166.05" stroke="#263442" stroke-width="0.675" stroke-linecap="round"/>
<line x1="85.1542" y1="159.638" x2="85.1542" y2="167.063" stroke="#263442" stroke-width="0.675" stroke-linecap="round"/>
<line x1="86.5042" y1="160.65" x2="86.5042" y2="166.05" stroke="#263442" stroke-width="0.675" stroke-linecap="round"/>
<line x1="87.8542" y1="160.65" x2="87.8542" y2="166.05" stroke="#263442" stroke-width="0.675" stroke-linecap="round"/>
<line x1="89.2042" y1="160.65" x2="89.2042" y2="166.05" stroke="#263442" stroke-width="0.675" stroke-linecap="round"/>
<line x1="90.5541" y1="160.65" x2="90.5541" y2="166.05" stroke="#263442" stroke-width="0.675" stroke-linecap="round"/>
<line x1="91.9042" y1="160.65" x2="91.9042" y2="166.05" stroke="#263442" stroke-width="0.675" stroke-linecap="round"/>
<line x1="93.2542" y1="157.613" x2="93.2542" y2="169.088" stroke="#263442" stroke-width="0.675" stroke-linecap="round"/>
<line x1="94.6042" y1="158.288" x2="94.6042" y2="168.413" stroke="#263442" stroke-width="0.675" stroke-linecap="round"/>
<line x1="95.9542" y1="158.288" x2="95.9542" y2="168.413" stroke="#263442" stroke-width="0.675" stroke-linecap="round"/>
<line x1="97.3042" y1="158.288" x2="97.3042" y2="168.413" stroke="#263442" stroke-width="0.675" stroke-linecap="round"/>
<line x1="98.6542" y1="158.288" x2="98.6542" y2="168.413" stroke="#263442" stroke-width="0.675" stroke-linecap="round"/>
<line x1="100.004" y1="159.638" x2="100.004" y2="167.063" stroke="#263442" stroke-width="0.675" stroke-linecap="round"/>
<line x1="101.354" y1="158.288" x2="101.354" y2="168.413" stroke="#263442" stroke-width="0.675" stroke-linecap="round"/>
<line x1="102.704" y1="157.613" x2="102.704" y2="169.088" stroke="#263442" stroke-width="0.675" stroke-linecap="round"/>
<line x1="104.054" y1="158.288" x2="104.054" y2="168.413" stroke="#263442" stroke-width="0.675" stroke-linecap="round"/>
<line x1="105.404" y1="158.288" x2="105.404" y2="168.413" stroke="#263442" stroke-width="0.675" stroke-linecap="round"/>
<line x1="106.754" y1="158.288" x2="106.754" y2="168.413" stroke="#263442" stroke-width="0.675" stroke-linecap="round"/>
<line x1="108.104" y1="160.65" x2="108.104" y2="166.05" stroke="#263442" stroke-width="0.675" stroke-linecap="round"/>
<line x1="109.454" y1="160.65" x2="109.454" y2="166.05" stroke="#263442" stroke-width="0.675" stroke-linecap="round"/>
<line x1="110.804" y1="160.65" x2="110.804" y2="166.05" stroke="#263442" stroke-width="0.675" stroke-linecap="round"/>
<line x1="112.154" y1="162.338" x2="112.154" y2="164.363" stroke="#263442" stroke-width="0.675" stroke-linecap="round"/>
<line x1="113.504" y1="159.638" x2="113.504" y2="167.063" stroke="#263442" stroke-width="0.675" stroke-linecap="round"/>
<line x1="114.854" y1="159.638" x2="114.854" y2="167.063" stroke="#263442" stroke-width="0.675" stroke-linecap="round"/>
<line x1="116.204" y1="162.338" x2="116.204" y2="164.363" stroke="#263442" stroke-width="0.675" stroke-linecap="round"/>
<line x1="117.554" y1="162.338" x2="117.554" y2="164.363" stroke="#263442" stroke-width="0.675" stroke-linecap="round"/>
<line x1="118.904" y1="159.638" x2="118.904" y2="167.063" stroke="#263442" stroke-width="0.675" stroke-linecap="round"/>
<line x1="120.254" y1="159.638" x2="120.254" y2="167.063" stroke="#263442" stroke-width="0.675" stroke-linecap="round"/>
<line x1="121.604" y1="159.638" x2="121.604" y2="167.063" stroke="#263442" stroke-width="0.675" stroke-linecap="round"/>
<line x1="122.954" y1="159.638" x2="122.954" y2="167.063" stroke="#263442" stroke-width="0.675" stroke-linecap="round"/>
<line x1="124.304" y1="162.338" x2="124.304" y2="164.363" stroke="#263442" stroke-width="0.675" stroke-linecap="round"/>
<line x1="125.654" y1="162.338" x2="125.654" y2="164.363" stroke="#263442" stroke-width="0.675" stroke-linecap="round"/>
<line x1="127.004" y1="157.613" x2="127.004" y2="169.088" stroke="#263442" stroke-width="0.675" stroke-linecap="round"/>
<line x1="128.354" y1="160.65" x2="128.354" y2="166.05" stroke="#263442" stroke-width="0.675" stroke-linecap="round"/>
<line x1="129.704" y1="160.65" x2="129.704" y2="166.05" stroke="#263442" stroke-width="0.675" stroke-linecap="round"/>
<line x1="131.054" y1="160.65" x2="131.054" y2="166.05" stroke="#263442" stroke-width="0.675" stroke-linecap="round"/>
<line x1="132.404" y1="162.338" x2="132.404" y2="164.363" stroke="#263442" stroke-width="0.675" stroke-linecap="round"/>
<line x1="133.754" y1="162.338" x2="133.754" y2="164.363" stroke="#263442" stroke-width="0.675" stroke-linecap="round"/>
<line x1="135.104" y1="162.338" x2="135.104" y2="164.363" stroke="#263442" stroke-width="0.675" stroke-linecap="round"/>
<line x1="136.454" y1="160.65" x2="136.454" y2="166.05" stroke="#263442" stroke-width="0.675" stroke-linecap="round"/>
<line x1="137.804" y1="160.65" x2="137.804" y2="166.05" stroke="#263442" stroke-width="0.675" stroke-linecap="round"/>
<line x1="139.154" y1="160.65" x2="139.154" y2="166.05" stroke="#263442" stroke-width="0.675" stroke-linecap="round"/>
<line x1="140.504" y1="160.65" x2="140.504" y2="166.05" stroke="#263442" stroke-width="0.675" stroke-linecap="round"/>
<line x1="141.854" y1="160.65" x2="141.854" y2="166.05" stroke="#263442" stroke-width="0.675" stroke-linecap="round"/>
<line x1="143.204" y1="160.65" x2="143.204" y2="166.05" stroke="#263442" stroke-width="0.675" stroke-linecap="round"/>
<line x1="144.554" y1="162.338" x2="144.554" y2="164.363" stroke="#263442" stroke-width="0.675" stroke-linecap="round"/>
<line x1="145.904" y1="162.338" x2="145.904" y2="164.363" stroke="#263442" stroke-width="0.675" stroke-linecap="round"/>
<line x1="147.254" y1="160.65" x2="147.254" y2="166.05" stroke="#263442" stroke-width="0.675" stroke-linecap="round"/>
<line x1="148.604" y1="160.65" x2="148.604" y2="166.05" stroke="#263442" stroke-width="0.675" stroke-linecap="round"/>
<line x1="149.954" y1="158.288" x2="149.954" y2="168.413" stroke="#263442" stroke-width="0.675" stroke-linecap="round"/>
<line x1="151.304" y1="160.65" x2="151.304" y2="166.05" stroke="#263442" stroke-width="0.675" stroke-linecap="round"/>
<line x1="152.654" y1="160.65" x2="152.654" y2="166.05" stroke="#263442" stroke-width="0.675" stroke-linecap="round"/>
<line x1="154.004" y1="160.65" x2="154.004" y2="166.05" stroke="#263442" stroke-width="0.675" stroke-linecap="round"/>
<line x1="155.354" y1="162.338" x2="155.354" y2="164.363" stroke="#263442" stroke-width="0.675" stroke-linecap="round"/>
<line x1="156.704" y1="162.338" x2="156.704" y2="164.363" stroke="#263442" stroke-width="0.675" stroke-linecap="round"/>
<line x1="158.054" y1="159.638" x2="158.054" y2="167.063" stroke="#263442" stroke-width="0.675" stroke-linecap="round"/>
<line x1="159.404" y1="162.338" x2="159.404" y2="164.363" stroke="#263442" stroke-width="0.675" stroke-linecap="round"/>
<line x1="160.754" y1="159.638" x2="160.754" y2="167.063" stroke="#263442" stroke-width="0.675" stroke-linecap="round"/>
<line x1="162.104" y1="160.65" x2="162.104" y2="166.05" stroke="#263442" stroke-width="0.675" stroke-linecap="round"/>
<line x1="163.454" y1="160.65" x2="163.454" y2="166.05" stroke="#263442" stroke-width="0.675" stroke-linecap="round"/>
<line x1="164.804" y1="160.65" x2="164.804" y2="166.05" stroke="#263442" stroke-width="0.675" stroke-linecap="round"/>
<line x1="166.154" y1="157.613" x2="166.154" y2="169.088" stroke="#263442" stroke-width="0.675" stroke-linecap="round"/>
<line x1="167.504" y1="158.288" x2="167.504" y2="168.413" stroke="#263442" stroke-width="0.675" stroke-linecap="round"/>
<line x1="168.854" y1="159.638" x2="168.854" y2="167.063" stroke="#263442" stroke-width="0.675" stroke-linecap="round"/>
<line x1="170.204" y1="159.638" x2="170.204" y2="167.063" stroke="#263442" stroke-width="0.675" stroke-linecap="round"/>
<line x1="171.554" y1="162.338" x2="171.554" y2="164.363" stroke="#263442" stroke-width="0.675" stroke-linecap="round"/>
<line x1="172.904" y1="160.65" x2="172.904" y2="166.05" stroke="#263442" stroke-width="0.675" stroke-linecap="round"/>
<line x1="174.254" y1="160.65" x2="174.254" y2="166.05" stroke="#263442" stroke-width="0.675" stroke-linecap="round"/>
<line x1="175.604" y1="160.65" x2="175.604" y2="166.05" stroke="#263442" stroke-width="0.675" stroke-linecap="round"/>
<line x1="176.954" y1="161.663" x2="176.954" y2="165.038" stroke="#263442" stroke-width="0.675" stroke-linecap="round"/>
<line x1="178.304" y1="161.663" x2="178.304" y2="165.038" stroke="#263442" stroke-width="0.675" stroke-linecap="round"/>
<line x1="179.654" y1="161.663" x2="179.654" y2="165.038" stroke="#263442" stroke-width="0.675" stroke-linecap="round"/>
<line x1="181.004" y1="161.663" x2="181.004" y2="165.038" stroke="#263442" stroke-width="0.675" stroke-linecap="round"/>
<line x1="182.354" y1="161.663" x2="182.354" y2="165.038" stroke="#263442" stroke-width="0.675" stroke-linecap="round"/>
<line x1="183.704" y1="161.663" x2="183.704" y2="165.038" stroke="#263442" stroke-width="0.675" stroke-linecap="round"/>
<line x1="185.054" y1="162.338" x2="185.054" y2="164.363" stroke="#263442" stroke-width="0.675" stroke-linecap="round"/>
<line x1="186.404" y1="162.338" x2="186.404" y2="164.363" stroke="#263442" stroke-width="0.675" stroke-linecap="round"/>
<line x1="187.754" y1="162.338" x2="187.754" y2="164.363" stroke="#263442" stroke-width="0.675" stroke-linecap="round"/>
<line x1="187.754" y1="162.338" x2="187.754" y2="164.363" stroke="#263442" stroke-width="0.675" stroke-linecap="round"/>
<line x1="189.104" y1="159.638" x2="189.104" y2="167.063" stroke="#263442" stroke-width="0.675" stroke-linecap="round"/>
<line x1="190.454" y1="159.638" x2="190.454" y2="167.063" stroke="#263442" stroke-width="0.675" stroke-linecap="round"/>
<line x1="191.804" y1="159.638" x2="191.804" y2="167.063" stroke="#263442" stroke-width="0.675" stroke-linecap="round"/>
<line x1="193.154" y1="159.638" x2="193.154" y2="167.063" stroke="#263442" stroke-width="0.675" stroke-linecap="round"/>
<line x1="194.504" y1="162.338" x2="194.504" y2="164.363" stroke="#263442" stroke-width="0.675" stroke-linecap="round"/>
<line x1="195.854" y1="162.338" x2="195.854" y2="164.363" stroke="#263442" stroke-width="0.675" stroke-linecap="round"/>
<line x1="197.204" y1="157.613" x2="197.204" y2="169.088" stroke="#263442" stroke-width="0.675" stroke-linecap="round"/>
<line x1="198.554" y1="160.65" x2="198.554" y2="166.05" stroke="#263442" stroke-width="0.675" stroke-linecap="round"/>
<line x1="199.904" y1="160.65" x2="199.904" y2="166.05" stroke="#263442" stroke-width="0.675" stroke-linecap="round"/>
<line x1="201.254" y1="160.65" x2="201.254" y2="166.05" stroke="#263442" stroke-width="0.675" stroke-linecap="round"/>
<line x1="202.604" y1="162.338" x2="202.604" y2="164.363" stroke="#263442" stroke-width="0.675" stroke-linecap="round"/>
<line x1="203.954" y1="162.338" x2="203.954" y2="164.363" stroke="#263442" stroke-width="0.675" stroke-linecap="round"/>
<line x1="205.304" y1="162.338" x2="205.304" y2="164.363" stroke="#263442" stroke-width="0.675" stroke-linecap="round"/>
<line x1="206.654" y1="160.65" x2="206.654" y2="166.05" stroke="#263442" stroke-width="0.675" stroke-linecap="round"/>
<line x1="208.004" y1="160.65" x2="208.004" y2="166.05" stroke="#263442" stroke-width="0.675" stroke-linecap="round"/>
<line x1="209.354" y1="160.65" x2="209.354" y2="166.05" stroke="#263442" stroke-width="0.675" stroke-linecap="round"/>
<line x1="210.704" y1="160.65" x2="210.704" y2="166.05" stroke="#263442" stroke-width="0.675" stroke-linecap="round"/>
<line x1="212.054" y1="160.65" x2="212.054" y2="166.05" stroke="#263442" stroke-width="0.675" stroke-linecap="round"/>
<line x1="213.404" y1="160.65" x2="213.404" y2="166.05" stroke="#263442" stroke-width="0.675" stroke-linecap="round"/>
<line x1="214.754" y1="162.338" x2="214.754" y2="164.363" stroke="#263442" stroke-width="0.675" stroke-linecap="round"/>
<line x1="216.104" y1="162.338" x2="216.104" y2="164.363" stroke="#263442" stroke-width="0.675" stroke-linecap="round"/>
<line x1="217.454" y1="160.65" x2="217.454" y2="166.05" stroke="#263442" stroke-width="0.675" stroke-linecap="round"/>
<line x1="218.804" y1="160.65" x2="218.804" y2="166.05" stroke="#263442" stroke-width="0.675" stroke-linecap="round"/>
<line x1="220.154" y1="158.288" x2="220.154" y2="168.413" stroke="#263442" stroke-width="0.675" stroke-linecap="round"/>
<line x1="221.504" y1="160.65" x2="221.504" y2="166.05" stroke="#263442" stroke-width="0.675" stroke-linecap="round"/>
<line x1="222.854" y1="160.65" x2="222.854" y2="166.05" stroke="#263442" stroke-width="0.675" stroke-linecap="round"/>
<line x1="224.204" y1="160.65" x2="224.204" y2="166.05" stroke="#263442" stroke-width="0.675" stroke-linecap="round"/>
<line x1="225.554" y1="162.338" x2="225.554" y2="164.363" stroke="#263442" stroke-width="0.675" stroke-linecap="round"/>
<line x1="226.904" y1="162.338" x2="226.904" y2="164.363" stroke="#263442" stroke-width="0.675" stroke-linecap="round"/>
<line x1="228.254" y1="159.638" x2="228.254" y2="167.063" stroke="#263442" stroke-width="0.675" stroke-linecap="round"/>
<line x1="229.604" y1="162.338" x2="229.604" y2="164.363" stroke="#263442" stroke-width="0.675" stroke-linecap="round"/>
<line x1="230.954" y1="159.638" x2="230.954" y2="167.063" stroke="#263442" stroke-width="0.675" stroke-linecap="round"/>
<line x1="232.304" y1="160.65" x2="232.304" y2="166.05" stroke="#263442" stroke-width="0.675" stroke-linecap="round"/>
<line x1="233.654" y1="160.65" x2="233.654" y2="166.05" stroke="#263442" stroke-width="0.675" stroke-linecap="round"/>
<line x1="235.004" y1="160.65" x2="235.004" y2="166.05" stroke="#263442" stroke-width="0.675" stroke-linecap="round"/>
<line x1="236.354" y1="157.613" x2="236.354" y2="169.088" stroke="#263442" stroke-width="0.675" stroke-linecap="round"/>
<line x1="237.704" y1="158.288" x2="237.704" y2="168.413" stroke="#263442" stroke-width="0.675" stroke-linecap="round"/>
<line x1="239.054" y1="159.638" x2="239.054" y2="167.063" stroke="#263442" stroke-width="0.675" stroke-linecap="round"/>
<line x1="240.404" y1="159.638" x2="240.404" y2="167.063" stroke="#263442" stroke-width="0.675" stroke-linecap="round"/>
<line x1="241.754" y1="162.338" x2="241.754" y2="164.363" stroke="#263442" stroke-width="0.675" stroke-linecap="round"/>
<line x1="243.104" y1="160.65" x2="243.104" y2="166.05" stroke="#263442" stroke-width="0.675" stroke-linecap="round"/>
<line x1="244.454" y1="160.65" x2="244.454" y2="166.05" stroke="#263442" stroke-width="0.675" stroke-linecap="round"/>
<line x1="245.804" y1="160.65" x2="245.804" y2="166.05" stroke="#263442" stroke-width="0.675" stroke-linecap="round"/>
<line x1="247.154" y1="161.663" x2="247.154" y2="165.038" stroke="#263442" stroke-width="0.675" stroke-linecap="round"/>
<line x1="248.504" y1="161.663" x2="248.504" y2="165.038" stroke="#263442" stroke-width="0.675" stroke-linecap="round"/>
<line x1="249.854" y1="161.663" x2="249.854" y2="165.038" stroke="#263442" stroke-width="0.675" stroke-linecap="round"/>
<line x1="251.204" y1="161.663" x2="251.204" y2="165.038" stroke="#263442" stroke-width="0.675" stroke-linecap="round"/>
<line x1="252.554" y1="161.663" x2="252.554" y2="165.038" stroke="#263442" stroke-width="0.675" stroke-linecap="round"/>
<line x1="253.904" y1="161.663" x2="253.904" y2="165.038" stroke="#263442" stroke-width="0.675" stroke-linecap="round"/>
<line x1="255.254" y1="162.338" x2="255.254" y2="164.363" stroke="#263442" stroke-width="0.675" stroke-linecap="round"/>
<line x1="256.604" y1="162.338" x2="256.604" y2="164.363" stroke="#263442" stroke-width="0.675" stroke-linecap="round"/>
<line x1="257.954" y1="162.338" x2="257.954" y2="164.363" stroke="#263442" stroke-width="0.675" stroke-linecap="round"/>
<line x1="259.304" y1="162.338" x2="259.304" y2="164.363" stroke="#263442" stroke-width="0.675" stroke-linecap="round"/>
<path d="M273.656 165.964C273.082 165.964 272.588 165.819 272.172 165.529C271.763 165.239 271.444 164.839 271.218 164.329C270.997 163.813 270.887 163.217 270.887 162.543C270.887 161.869 270.997 161.277 271.218 160.766C271.444 160.25 271.763 159.847 272.172 159.557C272.588 159.267 273.082 159.122 273.656 159.122C274.229 159.122 274.72 159.267 275.13 159.557C275.539 159.847 275.854 160.25 276.075 160.766C276.295 161.277 276.406 161.869 276.406 162.543C276.406 163.217 276.295 163.813 276.075 164.329C275.854 164.839 275.539 165.239 275.13 165.529C274.72 165.819 274.229 165.964 273.656 165.964ZM273.656 164.821C273.946 164.821 274.198 164.729 274.412 164.546C274.632 164.357 274.802 164.093 274.922 163.753C275.048 163.412 275.111 163.009 275.111 162.543C275.111 162.071 275.048 161.667 274.922 161.333C274.802 160.993 274.632 160.732 274.412 160.549C274.198 160.366 273.946 160.275 273.656 160.275C273.366 160.275 273.108 160.366 272.881 160.549C272.66 160.732 272.49 160.993 272.371 161.333C272.251 161.667 272.191 162.071 272.191 162.543C272.191 163.009 272.251 163.412 272.371 163.753C272.49 164.093 272.66 164.357 272.881 164.546C273.108 164.729 273.366 164.821 273.656 164.821ZM278.614 165.851V160.7L277.234 161.173V160.077L279.143 159.236H279.927V165.851H278.614ZM281.888 165.898C281.655 165.898 281.466 165.829 281.321 165.69C281.176 165.545 281.104 165.369 281.104 165.161C281.104 164.953 281.176 164.78 281.321 164.641C281.466 164.496 281.655 164.424 281.888 164.424C282.121 164.424 282.31 164.496 282.455 164.641C282.6 164.78 282.672 164.953 282.672 165.161C282.672 165.369 282.6 165.545 282.455 165.69C282.31 165.829 282.121 165.898 281.888 165.898ZM281.888 162.241C281.655 162.241 281.466 162.171 281.321 162.033C281.176 161.888 281.104 161.711 281.104 161.504C281.104 161.296 281.176 161.122 281.321 160.984C281.466 160.839 281.655 160.766 281.888 160.766C282.121 160.766 282.31 160.839 282.455 160.984C282.6 161.122 282.672 161.296 282.672 161.504C282.672 161.711 282.6 161.888 282.455 162.033C282.31 162.171 282.121 162.241 281.888 162.241ZM283.679 165.851V164.915C284.089 164.594 284.489 164.272 284.879 163.951C285.27 163.63 285.62 163.312 285.928 162.997C286.237 162.675 286.48 162.364 286.656 162.061C286.839 161.759 286.93 161.466 286.93 161.182C286.93 161.006 286.895 160.845 286.826 160.7C286.763 160.549 286.659 160.429 286.514 160.341C286.369 160.247 286.18 160.199 285.947 160.199C285.727 160.199 285.538 160.25 285.38 160.351C285.229 160.451 285.112 160.587 285.031 160.757C284.955 160.921 284.917 161.107 284.917 161.315H283.689C283.701 160.829 283.808 160.423 284.01 160.096C284.218 159.768 284.492 159.525 284.832 159.368C285.179 159.204 285.563 159.122 285.985 159.122C286.464 159.122 286.867 159.21 287.195 159.387C287.522 159.557 287.771 159.79 287.941 160.086C288.118 160.382 288.206 160.722 288.206 161.107C288.206 161.396 288.149 161.68 288.036 161.957C287.929 162.234 287.781 162.505 287.592 162.77C287.403 163.028 287.188 163.277 286.949 163.516C286.716 163.756 286.467 163.986 286.202 164.206C285.944 164.42 285.692 164.622 285.446 164.811H288.366V165.851H283.679ZM292.429 165.851V164.65H289.178V163.639L292.259 159.236H293.695V163.545H294.555V164.65H293.695V165.851H292.429ZM290.539 163.545H292.505V160.644L290.539 163.545Z" fill="#263442"/>
<rect x="306.9" y="151.2" width="24.3" height="24.3" rx="12.15" fill="#263442"/>
<path d="M313.988 160.988C313.988 160.043 313.988 159.57 314.171 159.209C314.333 158.892 314.591 158.634 314.909 158.472C315.27 158.288 315.742 158.288 316.688 158.288H321.413C322.358 158.288 322.83 158.288 323.191 158.472C323.509 158.634 323.767 158.892 323.929 159.209C324.113 159.57 324.113 160.043 324.113 160.988V165.713C324.113 166.658 324.113 167.131 323.929 167.492C323.767 167.809 323.509 168.067 323.191 168.229C322.83 168.413 322.358 168.413 321.413 168.413H316.688C315.742 168.413 315.27 168.413 314.909 168.229C314.591 168.067 314.333 167.809 314.171 167.492C313.988 167.131 313.988 166.658 313.988 165.713V160.988Z" fill="#EFF2F5" stroke="#EFF2F5" stroke-width="0.945" stroke-linecap="round" stroke-linejoin="round"/>
<rect x="58.5" y="70.2002" width="243" height="7.425" rx="3.7125" fill="#E6E6E6"/>
</g>
</g>
</g>
<defs>
<filter id="filter0_dd_968_132783" x="0.5" y="-62" width="359" height="270" filterUnits="userSpaceOnUse" color-interpolation-filters="sRGB">
<feFlood flood-opacity="0" result="BackgroundImageFix"/>
<feColorMatrix in="SourceAlpha" type="matrix" values="0 0 0 0 0 0 0 0 0 0 0 0 0 0 0 0 0 0 127 0" result="hardAlpha"/>
<feOffset dy="4"/>
<feGaussianBlur stdDeviation="2"/>
<feComposite in2="hardAlpha" operator="out"/>
<feColorMatrix type="matrix" values="0 0 0 0 0.829167 0 0 0 0 0.829167 0 0 0 0 0.829167 0 0 0 0.33 0"/>
<feBlend mode="normal" in2="BackgroundImageFix" result="effect1_dropShadow_968_132783"/>
<feColorMatrix in="SourceAlpha" type="matrix" values="0 0 0 0 0 0 0 0 0 0 0 0 0 0 0 0 0 0 127 0" result="hardAlpha"/>
<feOffset dy="-2"/>
<feGaussianBlur stdDeviation="2"/>
<feComposite in2="hardAlpha" operator="out"/>
<feColorMatrix type="matrix" values="0 0 0 0 0.827451 0 0 0 0 0.827451 0 0 0 0 0.827451 0 0 0 0.43 0"/>
<feBlend mode="normal" in2="effect1_dropShadow_968_132783" result="effect2_dropShadow_968_132783"/>
<feBlend mode="normal" in="SourceGraphic" in2="effect2_dropShadow_968_132783" result="shape"/>
</filter>
<clipPath id="clip0_968_132783">
<rect x="20.7" y="70.2002" width="318.6" height="113.4" rx="8.1" fill="white"/>
</clipPath>
<clipPath id="clip1_968_132783">
<rect width="318.6" height="113.4" fill="white" transform="translate(20.7 70.2002)"/>
</clipPath>
</defs>
</svg>
