<svg width="211" height="52" viewBox="0 0 211 52" fill="none" xmlns="http://www.w3.org/2000/svg">
<mask id="path-2-inside-1_46_3227" fill="white">
<path d="M13.9111 38.0206C14.0619 38.5831 14.6405 38.9165 15.2031 38.7657L16.1198 38.52C17.8139 38.066 18.7771 40.3908 17.2582 41.2679L13.9218 43.1945C13.4174 43.4857 12.7727 43.3131 12.4814 42.8087L0.141554 21.4357C-0.14969 20.9312 0.0228466 20.2855 0.527296 19.9943L6.24164 16.6952C7.09578 16.2021 8.18521 16.6534 8.44049 17.606L13.9111 38.0206Z"/>
</mask>
<path d="M13.9111 38.0206C14.0619 38.5831 14.6405 38.9165 15.2031 38.7657L16.1198 38.52C17.8139 38.066 18.7771 40.3908 17.2582 41.2679L13.9218 43.1945C13.4174 43.4857 12.7727 43.3131 12.4814 42.8087L0.141554 21.4357C-0.14969 20.9312 0.0228466 20.2855 0.527296 19.9943L6.24164 16.6952C7.09578 16.2021 8.18521 16.6534 8.44049 17.606L13.9111 38.0206Z" fill="#1A1F71"/>
<path d="M13.9111 38.0206L13.7073 38.0752L13.7073 38.0753L13.9111 38.0206ZM15.2031 38.7657L15.2577 38.9695L15.2577 38.9695L15.2031 38.7657ZM13.9218 43.1945L14.0273 43.3771L14.0273 43.3771L13.9218 43.1945ZM12.4814 42.8087L12.2987 42.9142L12.2987 42.9142L12.4814 42.8087ZM0.141554 21.4357L-0.0411236 21.5411L-0.0411232 21.5411L0.141554 21.4357ZM0.527296 19.9943L0.421831 19.8116L0.421827 19.8116L0.527296 19.9943ZM8.44049 17.606L8.23674 17.6606L8.44049 17.606ZM16.1198 38.52L16.0652 38.3163L16.1198 38.52ZM13.9111 38.0206L13.7073 38.0753C13.8884 38.7505 14.5828 39.1503 15.2577 38.9695L15.2031 38.7657L15.1485 38.562C14.6982 38.6826 14.2355 38.4158 14.1148 37.966L13.9111 38.0206ZM15.2031 38.7657L15.2577 38.9695L16.1744 38.7238L16.1198 38.52L16.0652 38.3163L15.1485 38.562L15.2031 38.7657ZM17.2582 41.2679L17.1527 41.0852L13.8163 43.0118L13.9218 43.1945L14.0273 43.3771L17.3637 41.4506L17.2582 41.2679ZM13.9218 43.1945L13.8164 43.0118C13.4128 43.2448 12.8971 43.1067 12.6641 42.7032L12.4814 42.8087L12.2987 42.9142C12.6483 43.5195 13.422 43.7266 14.0273 43.3771L13.9218 43.1945ZM12.4814 42.8087L12.6641 42.7032L0.32423 21.3302L0.141554 21.4357L-0.0411232 21.5411L12.2987 42.9142L12.4814 42.8087ZM0.141554 21.4357L0.324231 21.3302C0.0911502 20.9265 0.229353 20.4098 0.632765 20.1769L0.527296 19.9943L0.421827 19.8116C-0.18366 20.1612 -0.390531 20.9359 -0.0411236 21.5411L0.141554 21.4357ZM0.527296 19.9943L0.632761 20.1769L6.3471 16.8779L6.24164 16.6952L6.13617 16.5126L0.421831 19.8116L0.527296 19.9943ZM8.44049 17.606L8.23674 17.6606L13.7073 38.0752L13.9111 38.0206L14.1148 37.966L8.64424 17.5514L8.44049 17.606ZM6.24164 16.6952L6.3471 16.8779C7.08113 16.4541 8.01736 16.8419 8.23674 17.6606L8.44049 17.606L8.64424 17.5514C8.35306 16.4648 7.11043 15.9501 6.13617 16.5126L6.24164 16.6952ZM16.1198 38.52L16.1744 38.7238C17.6303 38.3336 18.458 40.3315 17.1527 41.0852L17.2582 41.2679L17.3637 41.4506C19.0962 40.4502 17.9976 37.7984 16.0652 38.3163L16.1198 38.52Z" fill="#FAFAFB" mask="url(#path-2-inside-1_46_3227)"/>
<mask id="path-4-inside-2_46_3227" fill="white">
<path d="M16.3205 34.1874C16.3206 34.7696 16.793 35.2418 17.3752 35.2421H18.2832C20.0372 35.2421 20.3656 37.737 18.6714 38.191L15.3791 39.0731C14.5791 39.2874 13.7568 38.8125 13.5422 38.0126L7.38499 15.0341C7.17057 14.2339 7.64534 13.4106 8.44553 13.1962L14.4324 11.5926C15.3851 11.3374 16.3205 12.0552 16.3205 13.0415V34.1874Z"/>
</mask>
<path d="M16.3205 34.1874C16.3206 34.7696 16.793 35.2418 17.3752 35.2421H18.2832C20.0372 35.2421 20.3656 37.737 18.6714 38.191L15.3791 39.0731C14.5791 39.2874 13.7568 38.8125 13.5422 38.0126L7.38499 15.0341C7.17057 14.2339 7.64534 13.4106 8.44553 13.1962L14.4324 11.5926C15.3851 11.3374 16.3205 12.0552 16.3205 13.0415V34.1874Z" fill="#1A1F71"/>
<path d="M16.3205 34.1874H16.1096V34.1874L16.3205 34.1874ZM17.3752 35.2421L17.3751 35.453H17.3752V35.2421ZM15.3791 39.0731L15.4337 39.2769L15.4337 39.2769L15.3791 39.0731ZM13.5422 38.0126L13.3385 38.0672L13.3385 38.0673L13.5422 38.0126ZM7.38499 15.0341L7.18124 15.0887L7.18124 15.0887L7.38499 15.0341ZM8.44553 13.1962L8.39096 12.9924L8.39094 12.9924L8.44553 13.1962ZM16.3205 34.1874L16.1096 34.1874C16.1097 34.8862 16.6766 35.4527 17.3751 35.453L17.3752 35.2421L17.3753 35.0311C16.9095 35.0309 16.5315 34.6531 16.5315 34.1874L16.3205 34.1874ZM17.3752 35.2421V35.453H18.2832V35.2421V35.0311H17.3752V35.2421ZM18.6714 38.191L18.6169 37.9872L15.3245 38.8694L15.3791 39.0731L15.4337 39.2769L18.726 38.3947L18.6714 38.191ZM15.3791 39.0731L15.3245 38.8694C14.6371 39.0535 13.9304 38.6454 13.7459 37.9579L13.5422 38.0126L13.3385 38.0673C13.5833 38.9795 14.5211 39.5213 15.4337 39.2769L15.3791 39.0731ZM13.5422 38.0126L13.746 37.958L7.58874 14.9795L7.38499 15.0341L7.18124 15.0887L13.3385 38.0672L13.5422 38.0126ZM7.38499 15.0341L7.58874 14.9795C7.40444 14.2917 7.81258 13.5842 8.50013 13.3999L8.44553 13.1962L8.39094 12.9924C7.47809 13.237 6.93671 14.1761 7.18124 15.0887L7.38499 15.0341ZM8.44553 13.1962L8.50011 13.3999L14.487 11.7963L14.4324 11.5926L14.3779 11.3888L8.39096 12.9924L8.44553 13.1962ZM16.3205 13.0415H16.1096V34.1874H16.3205H16.5315V13.0415H16.3205ZM14.4324 11.5926L14.487 11.7963C15.3057 11.577 16.1096 12.1939 16.1096 13.0415H16.3205H16.5315C16.5315 11.9165 15.4645 11.0977 14.3779 11.3888L14.4324 11.5926ZM18.2832 35.2421V35.453C19.7905 35.453 20.0728 37.5971 18.6169 37.9872L18.6714 38.191L18.726 38.3947C20.6585 37.8769 20.2838 35.0311 18.2832 35.0311V35.2421Z" fill="#FAFAFB" mask="url(#path-4-inside-2_46_3227)"/>
<rect x="16.1726" y="9.51929" width="19.6172" height="26.5781" rx="1.39453" fill="#1A1F71" stroke="#FAFAFB" stroke-width="0.210938"/>
<path d="M19.3568 16.9358V11.6618H19.7528V16.9358H19.3568ZM19.6088 16.4858C19.3048 16.4858 19.0328 16.4338 18.7928 16.3298C18.5568 16.2258 18.3708 16.0738 18.2348 15.8738C18.0988 15.6738 18.0268 15.4318 18.0188 15.1478H18.8768C18.8808 15.2718 18.9128 15.3838 18.9728 15.4838C19.0328 15.5838 19.1148 15.6638 19.2188 15.7238C19.3268 15.7798 19.4548 15.8078 19.6028 15.8078C19.7308 15.8078 19.8408 15.7878 19.9328 15.7478C20.0288 15.7038 20.1028 15.6438 20.1548 15.5678C20.2108 15.4918 20.2388 15.4018 20.2388 15.2978C20.2388 15.1938 20.2108 15.1018 20.1548 15.0218C20.1028 14.9418 20.0288 14.8738 19.9328 14.8178C19.8368 14.7578 19.7248 14.7038 19.5968 14.6558C19.4688 14.6038 19.3308 14.5538 19.1828 14.5058C18.8228 14.3978 18.5548 14.2518 18.3788 14.0678C18.2028 13.8838 18.1147 13.6438 18.1147 13.3478C18.1147 13.0958 18.1748 12.8798 18.2948 12.6998C18.4148 12.5198 18.5828 12.3818 18.7988 12.2858C19.0148 12.1898 19.2608 12.1418 19.5368 12.1418C19.8208 12.1418 20.0688 12.1918 20.2808 12.2918C20.4968 12.3878 20.6668 12.5278 20.7908 12.7118C20.9188 12.8958 20.9868 13.1118 20.9948 13.3598H20.1248C20.1208 13.2678 20.0928 13.1818 20.0408 13.1018C19.9928 13.0178 19.9248 12.9518 19.8368 12.9038C19.7488 12.8518 19.6448 12.8258 19.5248 12.8258C19.4208 12.8218 19.3248 12.8378 19.2368 12.8738C19.1528 12.9098 19.0868 12.9638 19.0388 13.0358C18.9908 13.1038 18.9668 13.1898 18.9668 13.2938C18.9668 13.3938 18.9908 13.4778 19.0388 13.5458C19.0868 13.6138 19.1548 13.6738 19.2428 13.7258C19.3308 13.7738 19.4348 13.8198 19.5548 13.8638C19.6748 13.9038 19.8048 13.9458 19.9448 13.9898C20.1568 14.0618 20.3488 14.1478 20.5208 14.2478C20.6968 14.3438 20.8368 14.4698 20.9408 14.6258C21.0448 14.7818 21.0968 14.9878 21.0968 15.2438C21.0968 15.4638 21.0388 15.6678 20.9228 15.8558C20.8108 16.0438 20.6448 16.1958 20.4248 16.3118C20.2048 16.4278 19.9328 16.4858 19.6088 16.4858Z" fill="white"/>
<rect x="24.8906" y="14.3591" width="9.28125" height="0.84375" rx="0.421875" fill="#F3F4F6"/>
<rect x="24.8906" y="16.8904" width="9.28125" height="0.84375" rx="0.421875" fill="#FFB400"/>
<rect x="18.3516" y="19.4216" width="15.8203" height="0.84375" rx="0.421875" fill="#F3F4F6"/>
<rect x="18.3516" y="21.9529" width="15.8203" height="0.84375" rx="0.421875" fill="#F3F4F6"/>
<rect x="18.3516" y="24.4841" width="15.8203" height="0.84375" rx="0.421875" fill="#F3F4F6"/>
<rect x="18.3516" y="27.0154" width="15.8203" height="0.84375" rx="0.421875" fill="#F3F4F6"/>
<rect x="18.3516" y="29.5466" width="15.8203" height="0.84375" rx="0.421875" fill="#F3F4F6"/>
<path d="M59.1353 35.1L54.1553 27.3H56.9153L61.9753 35.1H59.1353ZM55.6953 33.24C54.3486 33.24 53.1553 32.94 52.1153 32.34C51.0886 31.7267 50.2819 30.88 49.6953 29.8C49.1086 28.7067 48.8153 27.44 48.8153 26C48.8153 24.5733 49.1086 23.32 49.6953 22.24C50.2819 21.1467 51.0886 20.2933 52.1153 19.68C53.1553 19.0667 54.3486 18.76 55.6953 18.76C57.0686 18.76 58.2753 19.0667 59.3153 19.68C60.3553 20.2933 61.1619 21.1467 61.7353 22.24C62.3086 23.32 62.5953 24.5733 62.5953 26C62.5953 27.44 62.3086 28.7067 61.7353 29.8C61.1619 30.88 60.3553 31.7267 59.3153 32.34C58.2753 32.94 57.0686 33.24 55.6953 33.24ZM55.7153 31.08C56.6086 31.08 57.3886 30.88 58.0553 30.48C58.7219 30.0667 59.2353 29.48 59.5953 28.72C59.9553 27.96 60.1353 27.0533 60.1353 26C60.1353 24.9467 59.9553 24.04 59.5953 23.28C59.2353 22.52 58.7219 21.94 58.0553 21.54C57.3886 21.1267 56.6086 20.92 55.7153 20.92C54.8219 20.92 54.0419 21.1267 53.3753 21.54C52.7086 21.94 52.1886 22.52 51.8153 23.28C51.4553 24.04 51.2753 24.9467 51.2753 26C51.2753 27.0533 51.4553 27.96 51.8153 28.72C52.1886 29.48 52.7086 30.0667 53.3753 30.48C54.0419 30.88 54.8219 31.08 55.7153 31.08ZM68.6003 33.24C67.7869 33.24 67.0869 33.08 66.5003 32.76C65.9269 32.4267 65.4869 31.9333 65.1803 31.28C64.8736 30.6133 64.7203 29.7933 64.7203 28.82V22.92H67.1203V28.58C67.1203 29.4467 67.3003 30.1067 67.6603 30.56C68.0336 31 68.5936 31.22 69.3403 31.22C69.8203 31.22 70.2469 31.1067 70.6203 30.88C71.0069 30.6533 71.3069 30.3267 71.5203 29.9C71.7469 29.46 71.8603 28.9267 71.8603 28.3V22.92H74.2603V33H72.1403L71.9603 31.32C71.6536 31.9067 71.2069 32.3733 70.6203 32.72C70.0469 33.0667 69.3736 33.24 68.6003 33.24ZM77.0306 33V22.92H79.4306V33H77.0306ZM78.2306 21.32C77.7906 21.32 77.4239 21.1867 77.1306 20.92C76.8506 20.64 76.7106 20.3 76.7106 19.9C76.7106 19.4867 76.8506 19.1533 77.1306 18.9C77.4239 18.6333 77.7906 18.5 78.2306 18.5C78.6706 18.5 79.0306 18.6333 79.3106 18.9C79.6039 19.1533 79.7506 19.4867 79.7506 19.9C79.7506 20.3 79.6039 20.64 79.3106 20.92C79.0306 21.1867 78.6706 21.32 78.2306 21.32ZM86.984 33.24C85.9973 33.24 85.1107 33.02 84.324 32.58C83.5507 32.1267 82.944 31.5067 82.504 30.72C82.0773 29.92 81.864 29.0133 81.864 28C81.864 26.9467 82.0773 26.0267 82.504 25.24C82.944 24.44 83.5507 23.8133 84.324 23.36C85.1107 22.9067 86.004 22.68 87.004 22.68C88.2573 22.68 89.3107 23.0133 90.164 23.68C91.0173 24.3333 91.564 25.2333 91.804 26.38H89.284C89.1507 25.8733 88.8707 25.4733 88.444 25.18C88.0307 24.8867 87.5373 24.74 86.964 24.74C86.4707 24.74 86.0173 24.8667 85.604 25.12C85.204 25.3733 84.884 25.74 84.644 26.22C84.4173 26.7 84.304 27.28 84.304 27.96C84.304 28.48 84.3707 28.94 84.504 29.34C84.6373 29.74 84.824 30.08 85.064 30.36C85.3173 30.6267 85.604 30.8333 85.924 30.98C86.244 31.1267 86.5907 31.2 86.964 31.2C87.3507 31.2 87.6973 31.14 88.004 31.02C88.324 30.8867 88.5907 30.6933 88.804 30.44C89.0307 30.1867 89.1907 29.8867 89.284 29.54H91.804C91.564 30.66 91.0173 31.56 90.164 32.24C89.3107 32.9067 88.2507 33.24 86.984 33.24ZM100.618 33L96.1581 27.48L100.158 22.92H103.018L98.0381 28.46V26.6L103.618 33H100.618ZM94.1181 33V18.6H96.5181V33H94.1181ZM105.311 33V19H114.351V20.94H107.711V24.96H113.751V26.86H107.711V31.06H114.351V33H105.311ZM120.814 33.24C119.921 33.24 119.141 33.1 118.474 32.82C117.821 32.5267 117.301 32.1267 116.914 31.62C116.541 31.1 116.321 30.5067 116.254 29.84H118.654C118.721 30.12 118.841 30.38 119.014 30.62C119.187 30.8467 119.421 31.0267 119.714 31.16C120.021 31.2933 120.381 31.36 120.794 31.36C121.194 31.36 121.521 31.3067 121.774 31.2C122.027 31.08 122.214 30.9267 122.334 30.74C122.454 30.5533 122.514 30.3533 122.514 30.14C122.514 29.82 122.427 29.5733 122.254 29.4C122.081 29.2267 121.827 29.0933 121.494 29C121.174 28.8933 120.787 28.7933 120.334 28.7C119.854 28.6067 119.387 28.4933 118.934 28.36C118.494 28.2133 118.094 28.0333 117.734 27.82C117.387 27.6067 117.107 27.3333 116.894 27C116.694 26.6667 116.594 26.26 116.594 25.78C116.594 25.1933 116.747 24.6667 117.054 24.2C117.374 23.7333 117.827 23.3667 118.414 23.1C119.014 22.82 119.727 22.68 120.554 22.68C121.727 22.68 122.661 22.9533 123.354 23.5C124.061 24.0333 124.474 24.7867 124.594 25.76H122.314C122.247 25.3867 122.061 25.1 121.754 24.9C121.447 24.6867 121.041 24.58 120.534 24.58C120.014 24.58 119.614 24.68 119.334 24.88C119.067 25.0667 118.934 25.32 118.934 25.64C118.934 25.84 119.014 26.0267 119.174 26.2C119.347 26.36 119.594 26.5 119.914 26.62C120.234 26.7267 120.627 26.8333 121.094 26.94C121.841 27.0867 122.501 27.26 123.074 27.46C123.647 27.66 124.101 27.9533 124.434 28.34C124.767 28.7267 124.934 29.2733 124.934 29.98C124.947 30.62 124.781 31.1867 124.434 31.68C124.101 32.1733 123.627 32.56 123.014 32.84C122.401 33.1067 121.667 33.24 120.814 33.24ZM131.291 33C130.611 33 130.018 32.8933 129.511 32.68C129.018 32.4667 128.631 32.1133 128.351 31.62C128.071 31.1267 127.931 30.46 127.931 29.62V24.94H126.211V22.92H127.931L128.211 20.26H130.331V22.92H133.071V24.94H130.331V29.62C130.331 30.1267 130.438 30.48 130.651 30.68C130.878 30.8667 131.251 30.96 131.771 30.96H133.011V33H131.291ZM135.429 33V22.92H137.829V33H135.429ZM136.629 21.32C136.189 21.32 135.822 21.1867 135.529 20.92C135.249 20.64 135.109 20.3 135.109 19.9C135.109 19.4867 135.249 19.1533 135.529 18.9C135.822 18.6333 136.189 18.5 136.629 18.5C137.069 18.5 137.429 18.6333 137.709 18.9C138.002 19.1533 138.149 19.4867 138.149 19.9C138.149 20.3 138.002 20.64 137.709 20.92C137.429 21.1867 137.069 21.32 136.629 21.32ZM140.602 33V22.92H142.722L142.922 24.3C143.242 23.7933 143.662 23.4 144.182 23.12C144.716 22.8267 145.322 22.68 146.002 22.68C146.509 22.68 146.962 22.7467 147.362 22.88C147.776 23.0133 148.136 23.2133 148.442 23.48C148.762 23.7467 149.022 24.08 149.222 24.48C149.596 23.92 150.082 23.48 150.682 23.16C151.282 22.84 151.936 22.68 152.642 22.68C153.482 22.68 154.196 22.8533 154.782 23.2C155.369 23.5333 155.816 24.0333 156.122 24.7C156.429 25.3533 156.582 26.16 156.582 27.12V33H154.202V27.36C154.202 26.5067 154.029 25.8533 153.682 25.4C153.336 24.9467 152.822 24.72 152.142 24.72C151.676 24.72 151.262 24.8333 150.902 25.06C150.556 25.2867 150.282 25.62 150.082 26.06C149.882 26.4867 149.782 27.0133 149.782 27.64V33H147.402V27.36C147.402 26.5067 147.229 25.8533 146.882 25.4C146.536 24.9467 146.016 24.72 145.322 24.72C144.882 24.72 144.482 24.8333 144.122 25.06C143.776 25.2867 143.502 25.62 143.302 26.06C143.102 26.4867 143.002 27.0133 143.002 27.64V33H140.602ZM162.478 33.24C161.651 33.24 160.965 33.1 160.418 32.82C159.871 32.54 159.465 32.1667 159.198 31.7C158.931 31.2333 158.798 30.7267 158.798 30.18C158.798 29.54 158.958 28.9867 159.278 28.52C159.611 28.0533 160.098 27.6933 160.738 27.44C161.378 27.1733 162.165 27.04 163.098 27.04H165.638C165.638 26.5067 165.565 26.0667 165.418 25.72C165.271 25.36 165.045 25.0933 164.738 24.92C164.431 24.7467 164.038 24.66 163.558 24.66C163.011 24.66 162.545 24.7867 162.158 25.04C161.771 25.28 161.531 25.6533 161.438 26.16H159.078C159.158 25.44 159.398 24.8267 159.798 24.32C160.198 23.8 160.725 23.4 161.378 23.12C162.045 22.8267 162.771 22.68 163.558 22.68C164.505 22.68 165.311 22.8467 165.978 23.18C166.645 23.5 167.151 23.9667 167.498 24.58C167.858 25.18 168.038 25.9067 168.038 26.76V33H165.998L165.758 31.38C165.625 31.6467 165.451 31.8933 165.238 32.12C165.038 32.3467 164.805 32.5467 164.538 32.72C164.271 32.88 163.965 33.0067 163.618 33.1C163.285 33.1933 162.905 33.24 162.478 33.24ZM163.018 31.34C163.405 31.34 163.745 31.2733 164.038 31.14C164.345 30.9933 164.605 30.7933 164.818 30.54C165.045 30.2733 165.218 29.98 165.338 29.66C165.458 29.34 165.538 29 165.578 28.64V28.6H163.358C162.891 28.6 162.505 28.66 162.198 28.78C161.891 28.8867 161.671 29.0467 161.538 29.26C161.405 29.4733 161.338 29.72 161.338 30C161.338 30.28 161.405 30.52 161.538 30.72C161.671 30.92 161.865 31.0733 162.118 31.18C162.371 31.2867 162.671 31.34 163.018 31.34ZM174.826 33C174.146 33 173.553 32.8933 173.046 32.68C172.553 32.4667 172.166 32.1133 171.886 31.62C171.606 31.1267 171.466 30.46 171.466 29.62V24.94H169.746V22.92H171.466L171.746 20.26H173.866V22.92H176.606V24.94H173.866V29.62C173.866 30.1267 173.973 30.48 174.186 30.68C174.413 30.8667 174.786 30.96 175.306 30.96H176.546V33H174.826ZM183.33 33.24C182.33 33.24 181.45 33.0267 180.69 32.6C179.93 32.16 179.337 31.5467 178.91 30.76C178.484 29.9733 178.27 29.0667 178.27 28.04C178.27 26.9733 178.477 26.04 178.89 25.24C179.317 24.44 179.91 23.8133 180.67 23.36C181.444 22.9067 182.337 22.68 183.35 22.68C184.337 22.68 185.197 22.9 185.93 23.34C186.664 23.78 187.23 24.3733 187.63 25.12C188.03 25.8533 188.23 26.68 188.23 27.6C188.23 27.7333 188.23 27.88 188.23 28.04C188.23 28.2 188.217 28.3667 188.19 28.54H179.99V27H185.81C185.784 26.2667 185.537 25.6933 185.07 25.28C184.604 24.8533 184.024 24.64 183.33 24.64C182.837 24.64 182.384 24.7533 181.97 24.98C181.557 25.2067 181.23 25.5467 180.99 26C180.75 26.44 180.63 27 180.63 27.68V28.26C180.63 28.8867 180.744 29.4267 180.97 29.88C181.21 30.3333 181.53 30.68 181.93 30.92C182.344 31.1467 182.804 31.26 183.31 31.26C183.87 31.26 184.33 31.14 184.69 30.9C185.064 30.66 185.337 30.34 185.51 29.94H187.95C187.764 30.5667 187.457 31.1333 187.03 31.64C186.604 32.1333 186.077 32.5267 185.45 32.82C184.824 33.1 184.117 33.24 183.33 33.24ZM191.486 33.1C191.033 33.1 190.666 32.96 190.386 32.68C190.106 32.4 189.966 32.0667 189.966 31.68C189.966 31.2667 190.106 30.92 190.386 30.64C190.666 30.36 191.033 30.22 191.486 30.22C191.926 30.22 192.286 30.36 192.566 30.64C192.846 30.92 192.986 31.2667 192.986 31.68C192.986 32.0667 192.846 32.4 192.566 32.68C192.286 32.96 191.926 33.1 191.486 33.1Z" fill="#1A1F71"/>
<path d="M198.533 33.24C197.706 33.24 197.019 33.1 196.473 32.82C195.926 32.54 195.519 32.1667 195.253 31.7C194.986 31.2333 194.853 30.7267 194.853 30.18C194.853 29.54 195.013 28.9867 195.333 28.52C195.666 28.0533 196.153 27.6933 196.793 27.44C197.433 27.1733 198.219 27.04 199.153 27.04H201.693C201.693 26.5067 201.619 26.0667 201.473 25.72C201.326 25.36 201.099 25.0933 200.793 24.92C200.486 24.7467 200.093 24.66 199.613 24.66C199.066 24.66 198.599 24.7867 198.213 25.04C197.826 25.28 197.586 25.6533 197.493 26.16H195.133C195.213 25.44 195.453 24.8267 195.853 24.32C196.253 23.8 196.779 23.4 197.433 23.12C198.099 22.8267 198.826 22.68 199.613 22.68C200.559 22.68 201.366 22.8467 202.033 23.18C202.699 23.5 203.206 23.9667 203.553 24.58C203.913 25.18 204.093 25.9067 204.093 26.76V33H202.053L201.813 31.38C201.679 31.6467 201.506 31.8933 201.293 32.12C201.093 32.3467 200.859 32.5467 200.593 32.72C200.326 32.88 200.019 33.0067 199.673 33.1C199.339 33.1933 198.959 33.24 198.533 33.24ZM199.073 31.34C199.459 31.34 199.799 31.2733 200.093 31.14C200.399 30.9933 200.659 30.7933 200.873 30.54C201.099 30.2733 201.273 29.98 201.393 29.66C201.513 29.34 201.593 29 201.633 28.64V28.6H199.413C198.946 28.6 198.559 28.66 198.253 28.78C197.946 28.8867 197.726 29.0467 197.593 29.26C197.459 29.4733 197.393 29.72 197.393 30C197.393 30.28 197.459 30.52 197.593 30.72C197.726 30.92 197.919 31.0733 198.173 31.18C198.426 31.2867 198.726 31.34 199.073 31.34ZM206.757 33V22.92H209.157V33H206.757ZM207.957 21.32C207.517 21.32 207.15 21.1867 206.857 20.92C206.577 20.64 206.437 20.3 206.437 19.9C206.437 19.4867 206.577 19.1533 206.857 18.9C207.15 18.6333 207.517 18.5 207.957 18.5C208.397 18.5 208.757 18.6333 209.037 18.9C209.33 19.1533 209.477 19.4867 209.477 19.9C209.477 20.3 209.33 20.64 209.037 20.92C208.757 21.1867 208.397 21.32 207.957 21.32Z" fill="#FFB400"/>
</svg>
